<?xml version="1.0" encoding="utf-8"?>
<!-- Generator: Adobe Illustrator 24.0.0, SVG Export Plug-In . SVG Version: 6.00 Build 0)  -->
<svg version="1.1" id="Layer_1" xmlns="http://www.w3.org/2000/svg" xmlns:xlink="http://www.w3.org/1999/xlink" x="0px" y="0px"
	 viewBox="0 0 1097 1280" style="enable-background:new 0 0 1097 1280;" xml:space="preserve">
<g transform="translate(0.000000,1280.000000) scale(0.100000,-0.100000)">
	<path d="M7803.2,5089.3c4-14,31-88,60-165s58-159,64-181c12-46,23-58,65-74c25-9,31-7,62,24c26,26,34,42,34,70c0,56-43,44-52-14
		c-1-14-11-26-20-28c-14-3-18,3-18,28c0,33-19,83-43,115c-21,27-33,12-13-17c9-12,16-29,16-37c0-35-30,16-40,68
		c-10,54-77,192-107,221C7797.2,5112.3,7797.2,5111.3,7803.2,5089.3z"/>
	<path d="M6618.2,4897.3c0-84-8-127-31-185c-12-29-11-35,4-50c18-18,82-22,98-6c17,17-42,323-62,323
		C6622.2,4979.3,6618.2,4942.3,6618.2,4897.3z"/>
	<path d="M9928.2,4803.3c0-30,82-94,187-148c65-33,87-33,101-1c29,62,20,70-131,121C9995.2,4806.3,9928.2,4818.3,9928.2,4803.3z
		 M10089.2,4739.3c19-11,26-30,10-30c-5,0-19,9-32,20C10041.2,4750.3,10056.2,4756.3,10089.2,4739.3z"/>
	<path d="M7331.2,4599.3c-110-103-129-125-96-113c16,6,16,5,4-10c-30-38-74-9-85,56c-8,41-29,46-34,9c-2-14-11-22-23-22
		c-24,0-24-6,2-76c17-46,27-58,56-70c31-13,38-13,59,1c19,12,29,13,45,4c28-15,34-6,14,24c-15,23-15,28-1,55c8,16,52,75,97,131
		c44,57,79,105,76,108C7442.2,4698.3,7391.2,4655.3,7331.2,4599.3z"/>
	<path d="M9701.2,4651.3c2-20-7-32-35-51c-21-13-38-30-38-37c0-8,15-14,38-16l37-3l38-135c21-74,43-139,48-144c5-6,9,48,9,142
		c0,98,4,159,12,171c15,25,4,49-29,61c-16,5-40,16-55,24C9700.2,4677.3,9700.2,4676.3,9701.2,4651.3z"/>
	<path d="M9089.2,4530.3c-31-32-65-75-76-96s-34-46-50-55c-72-40-71-105,1-105c38,0,39,1,79,80c22,44,59,109,83,144
		C9196.2,4605.3,9178.2,4622.3,9089.2,4530.3z"/>
	<path d="M7858.2,4515.3c0-8,55-74,123-148c145-157,180-202,182-231c3-36,32-33,48,5c23,55,41,64,77,38c42-30,39-6-8,49
		c-21,25-47,61-57,79c-20,34-35,42-35,18c0-22-17-28-41-15c-12,6-60,46-108,88C7899.2,4523.3,7858.2,4549.3,7858.2,4515.3z"/>
	<path d="M6303.2,4509.3c-3-5-8-47-11-92c-6-95,5-127,50-143c26-9,32-6,72,39c24,26,44,54,44,62c0,26-32,29-51,5c-17-21-18-21-28-3
		c-6,11-20,45-31,75C6326.2,4511.3,6314.2,4526.3,6303.2,4509.3z"/>
	<path d="M10275.2,4447.3c-31-41-67-109-67-125c0-9,7-9,30-1c20,6,35,7,43,0c6-5,23-12,37-15c14-4,58-36,99-72s78-65,83-65
		c21,0,3,45-50,126c-32,49-70,110-85,137C10332.2,4488.3,10309.2,4492.3,10275.2,4447.3z M10386.2,4342.3c43-62,44-79,3-36
		c-40,41-51,63-32,63C10362.2,4369.3,10375.2,4357.3,10386.2,4342.3z"/>
	<path d="M6817.2,4213.3c-3-124-8-186-16-196c-13-15-6-54,16-96c27-51,92-30,110,35c17,59,14,73-14,73c-13,0-29,8-34,18
		s-17,83-27,162c-9,80-20,154-24,165S6819.2,4313.3,6817.2,4213.3z"/>
	<path d="M7615.2,4372.3c-10-16-27-182-27-265c0-43-3-78-6-78s-18,9-32,21c-31,24-39,12-18-29c12-24,13-35,3-61c-15-40,3-60,62-68
		c48-7,67,6,88,56c13,31,13,35-8,58c-21,22-24,37-32,185C7638.2,4343.3,7629.2,4395.3,7615.2,4372.3z"/>
	<path d="M8764.2,4344.3c-9-24-7-108,3-124c14-22,22,3,22,65C8789.2,4343.3,8776.2,4374.3,8764.2,4344.3z"/>
	<path d="M9291.2,4273.3c-23-10-13-52,25-102c58-78,175-198,179-185c2,6-19,60-46,119c-28,59-51,108-51,109c0,2,10,5,23,9l22,5
		l-22,22C9400.2,4272.3,9319.2,4286.3,9291.2,4273.3z M9382.2,4166.3c6-9,7-19,3-23c-9-9-37,15-37,33S9368.2,4188.3,9382.2,4166.3z"
		/>
	<path d="M9928.2,4250.3c0-6-16-28-35-50c-40-44-42-51-16-51c12,0,29-16,44-43c33-56,193-224,203-214c5,5,1,20-9,35
		c-9,15-42,79-72,142s-63,131-74,150C9951.2,4253.3,9928.2,4270.3,9928.2,4250.3z M9995.2,4084.3c8-22-6-33-17-15c-13,20-12,30,0,30
		C9984.2,4099.3,9991.2,4092.3,9995.2,4084.3z"/>
	<path d="M6108.2,4209.3c0-16,66-145,121-237c63-104,96-133,154-133c54,0,69,18,70,84c0,45-2,51-23,54c-13,2-25-3-28-12
		c-16-43-66-6-189,141c-53,62-98,113-101,113C6110.2,4219.3,6108.2,4214.3,6108.2,4209.3z M6318.2,3923.3c0-8-1-14-3-14
		c-6,0-77,98-77,106C6239.2,4029.3,6318.2,3938.3,6318.2,3923.3z"/>
	<path d="M7984.2,3897.3c-3-50-6-124-6-165v-73h33c18,0,41,6,51,13c18,13,17,20-19,165c-21,84-41,152-45,152
		S7988.2,3948.3,7984.2,3897.3z"/>
	<path d="M9174.2,3942.3c4-10,10-45,13-78c5-55,8-60,31-63c14-2,34,3,44,11c26,19,16,53-32,105
		C9190.2,3960.3,9159.2,3974.3,9174.2,3942.3z"/>
	<path d="M9540.2,3777.3c-20-27-22-54-5-70c26-23,92-40,138-36l40,3l-58,58C9596.2,3789.3,9561.2,3803.3,9540.2,3777.3z"/>
	<path d="M9979.2,3699.3c-7-23-10-49-7-58c10-31,220-141,232-121c3,6-21,39-55,74s-61,67-61,72c0,8-84,73-94,73
		C9993.2,3739.3,9986.2,3721.3,9979.2,3699.3z"/>
	<path d="M9910.2,3678.3c2-18,9-34,16-37c10-3,13,5,10,29c-2,18-9,34-16,37C9910.2,3710.3,9907.2,3702.3,9910.2,3678.3z"/>
	<path d="M7178.2,3668.3c0-7,21-35,47-61l47-48l-32-6c-18-4-35-10-37-14c-7-11,93-60,120-60s65,39,65,66c0,22-38,64-58,64
		c-6,0-27,14-46,31C7246.2,3673.3,7178.2,3691.3,7178.2,3668.3z"/>
	<path d="M6674.2,3523.3c-10-27-7-61,8-73c8-7,72-30,143-52c70-22,136-42,146-46c34-11,16,17-37,56
		C6772.2,3528.3,6690.2,3564.3,6674.2,3523.3z"/>
	<path d="M3360.2,10594.3c-12-15-24-47-27-73c-18-136-38-257-55-328c-11-47-15-83-10-88c13-13,53,81,75,174c10,41,31,119,47,172
		c31,104,34,161,7,166C3388.2,10619.3,3371.2,10608.3,3360.2,10594.3z"/>
	<path d="M3634.2,10508.3c-4-8-19-92-35-185c-19-117-36-186-54-223c-35-74-15-112,44-81c33,18,49,66,60,178
		C3659.2,10306.3,3649.2,10539.3,3634.2,10508.3z M3630.2,10206.3c-9-19-11-13-10,33c0,53,1,54,10,22
		C3638.2,10238.3,3638.2,10222.3,3630.2,10206.3z"/>
	<path d="M2867.2,10147.3c-37-52-83-128-78-131c2-1,13-7,23-13c13-7,23-29,31-65c12-63,21-79,41-79c19,0,34,41,34,96c0,24,4,44,8,44
		c17,0,69-64,146-182c45-67,87-124,94-126c23-7,12,29-31,101c-52,86-146,288-154,331C2967.2,10200.3,2914.2,10211.3,2867.2,10147.3z
		 M2937.2,10113.3c3-16,1-17-13-5c-19,16-21,34-3,29C2927.2,10134.3,2935.2,10124.3,2937.2,10113.3z"/>
	<path d="M2301.2,10137.3c-39-41-79-120-98-195c-20-76-12-99,31-94c23,3,34-29,49-135c8-60,18-122,21-138c12-56,24-2,35,156
		c6,84,13,173,15,197c5,42,6,43,21,21c24-34,37-10,19,36c-8,21-20,64-26,95s-16,64-23,73
		C2334.2,10168.3,2330.2,10167.3,2301.2,10137.3z M2324.2,9868.3c-8-136-20-176-29-98c-15,123-3,230,24,213
		C2328.2,9978.3,2329.2,9945.3,2324.2,9868.3z"/>
	<path d="M3689.2,9613.3c-12-15-21-34-21-42c0-22,69-109,144-180c94-90,114-83,47,16c-53,79-68,123-52,158c13,29,11,34-12,38
		c-8,1-26,9-40,19C3720.2,9645.3,3713.2,9644.3,3689.2,9613.3z"/>
	<path d="M3129.2,9422.3c-3-29-40-53-71-47c-28,6-30,5-30-24c0-32-4-35-73-47l-39-6l44-22c39-20,45-28,61-82c25-83,37-104,69-123
		c19-11,36-37,54-82c46-117,77-180,87-180c13,0,3,62-39,247c-19,84-40,203-48,265C3137.2,9383.3,3130.2,9428.3,3129.2,9422.3z
		 M3137.2,9169.3c0-23-1-23-9-5c-5,11-9,29-9,40c-1,17,1,17,9,5C3133.2,9201.3,3137.2,9183.3,3137.2,9169.3z M3155.2,9087.3
		c-3-7-5-2-5,12s2,19,5,13C3157.2,9105.3,3157.2,9093.3,3155.2,9087.3z"/>
	<path d="M3568.2,9328.3c0-32-17-55-50-69c-16-7-30-18-29-24c0-6,19-25,42-41c35-26,43-37,45-69l3-38l25,23c29,27,31,26,154-61
		c129-90,142-77,29,29c-111,104-176,185-190,235C3586.2,9352.3,3568.2,9362.3,3568.2,9328.3z"/>
	<path d="M2334.2,9298.3c-33-26-106-49-156-49c-21,0-47-8-60-18c-34-27-8-40,93-48l87-7v-57c0-67,19-101,47-84c29,17,60,70,67,113
		c8,51,21,59,40,23c19-37,42-56,51-42c14,23-99,190-129,190C2366.2,9319.3,2349.2,9309.3,2334.2,9298.3z"/>
	<path d="M3598.2,8809.3c-16-17-39-51-51-77c-22-46-22-48-5-92c9-25,26-72,37-103c15-40,31-65,52-80c18-12,36-28,40-35s15-13,24-13
		c11,0,14,6,9,23c-3,12-13,99-22,192C3660.2,8853.3,3653.2,8868.3,3598.2,8809.3z M3646.2,8653.3c4-47-14-36-24,15c-6,26-4,33,7,29
		C3637.2,8694.3,3644.2,8676.3,3646.2,8653.3z"/>
	<path d="M2624.2,8810.3c-7-10,31-31,55-31c21,0,5-48-57-178c-59-121-89-212-70-212c3,0,19,24,36,54c34,60,54,80,88,91
		c16,5,32,24,47,58c13,29,37,65,54,81c36,34,39,63,11,94C2759.2,8797.3,2636.2,8830.3,2624.2,8810.3z"/>
	<path d="M3175.2,8636.3c-9-14-30-33-46-42c-35-17-59-80-68-172l-6-63h39c64,0,83-17,134-118c45-89,80-139,80-115c0,6-18,70-39,141
		c-47,156-59,213-69,317l-7,79L3175.2,8636.3z"/>
	<path d="M2041.2,7874.3c0-22,2-30,4-17c2,12,2,30,0,40C2042.2,7906.3,2040.2,7896.3,2041.2,7874.3z"/>
	<path d="M3102.2,7882.3c-23-16-56-97-70-171c-15-81-12-121,13-161c8-13,18-51,21-84c4-51,2-62-14-74c-19-14-19-14,0-28
		c38-29,50,3,96,260c12,66,26,128,32,139c10,19,11,19,24,1c8-10,17-16,20-12c12,11-7,77-29,102
		C3172.2,7880.3,3121.2,7895.3,3102.2,7882.3z M3136.2,7669.3c-16-81-32-89-24-12c6,68,14,89,26,75
		C3143.2,7728.3,3142.2,7699.3,3136.2,7669.3z"/>
	<path d="M2548.2,7779.3c0-13,14-25,45-39c48-21,54-31,30-51c-29-24-18-39,21-28c38,10,53,1,54-29c0-23,18-14,49,24
		c34,41,39,74,16,93c-13,11-167,48-202,50C2554.2,7799.3,2548.2,7790.3,2548.2,7779.3z"/>
	<path d="M3492.2,7104.3c-16-38-19-85-5-85c12,0,18,17,26,74C3522.2,7148.3,3513.2,7153.3,3492.2,7104.3z"/>
	<path d="M2703.2,6470.3c3-5,22-15,43-22c20-6,72-25,114-41c83-32,87-37,103-131c7-42,27-56,52-36c22,18,103,129,103,141
		c0,5-11,20-25,33c-19,20-34,25-77,25c-29,0-105,9-168,20C2719.2,6481.3,2694.2,6483.3,2703.2,6470.3z M3076.2,6397.3
		c-3-7-13-15-24-17c-16-3-17-1-5,13C3063.2,6412.3,3081.2,6414.3,3076.2,6397.3z"/>
	<path d="M6181.2,6375.3c4-10,7-19,7-21s29-25,64-50c66-47,76-60,76-100c0-33,10-36,61-22c53,16,63,41,22,59c-15,6-68,39-118,73
		C6171.2,6397.3,6173.2,6396.3,6181.2,6375.3z"/>
	<path d="M5542.2,6272.3c14-66,18-180,7-200c-9-17-8-25,5-37c20-21,102-22,110-2c6,15-32,118-78,209
		C5556.2,6302.3,5531.2,6319.3,5542.2,6272.3z"/>
	<path d="M4972.2,6215.3c33-87,41-101,72-124c30-21,28-52-4-52c-10,0-27-6-37-14c-16-12-17-16-6-30c16-19,61-21,86-3
		c14,11,16,21,11,48c-12,64-112,239-136,239C4952.2,6279.3,4959.2,6250.3,4972.2,6215.3z"/>
	<path d="M5808.2,6153.3c0-3,26-38,58-77c33-40,70-92,83-117c30-56,68-66,94-26c24,36,13,74-23,82c-45,11-79,32-147,90
		C5837.2,6135.3,5808.2,6157.3,5808.2,6153.3z"/>
	<path d="M3298.2,6044.3c-8-10-31-15-71-15c-56,0-86-14-55-26c30-11,16-20-49-33c-36-7-68-17-70-22c-6-8,37-22,106-35
		c66-13,89-31,89-70v-35l29,15c44,23,81,73,81,110s-28,126-40,126C3314.2,6059.3,3305.2,6052.3,3298.2,6044.3z M3308.2,5934.3
		c-7-8-16-12-21-9c-13,8-1,24,18,24C3318.2,5949.3,3318.2,5946.3,3308.2,5934.3z"/>
	<path d="M2454.2,6027.3c-8-13-18-40-21-60c-6-30-3-43,14-64c26-33,58-134,75-240l13-79l6,55c4,30,11,97,16,149c7,62,16,100,27,112
		c14,16,15,23,4,49c-14,33-85,100-107,100C2474.2,6049.3,2462.2,6039.3,2454.2,6027.3z"/>
	<path d="M4740.2,6017.3c-6-18-13-54-16-81c-3-26-14-64-25-85c-10-20-19-41-20-47c0-5-9-11-21-13c-31-5-24-29,11-36c38-7,65,6,72,36
		c14,55,27,242,19,250C4754.2,6047.3,4746.2,6038.3,4740.2,6017.3z"/>
	<path d="M3764.2,5867.3c-48-117-102-338-83-338c4,0,29,39,57,88c72,122,93,152,108,152c6,0,12-9,12-19c0-53,33-70,50-26
		c11,30-1,97-30,162c-17,39-22,43-53,43C3792.2,5929.3,3789.2,5926.3,3764.2,5867.3z M3788.2,5779.3c-17-34-33-60-35-58
		c-8,7,14,72,36,108C3824.2,5884.3,3822.2,5847.3,3788.2,5779.3z"/>
	<path d="M4964.2,5890.3c18-19,201-52,268-49c47,2,62,7,64,19c5,26-23,32-188,36C4991.2,5900.3,4956.2,5898.3,4964.2,5890.3z"/>
	<path d="M5549.2,5858.3c22-42,98-109,123-109c31,0,41,28,19,53c-24,26-113,77-136,77C5540.2,5879.3,5539.2,5876.3,5549.2,5858.3z"
		/>
	<path d="M4873.2,5849.3c4-12,33-75,64-139l56-116l43-3c56-4,55,13-3,61c-24,21-68,76-97,123
		C4883.2,5863.3,4860.2,5889.3,4873.2,5849.3z"/>
	<path d="M3338.2,5553.3c-55-47-88-135-55-148c8-3,15-16,15-28c1-28,17-50,48-67c36-19,45-5,39,60c-3,33-4,59-2,59
		c1,0,49-52,106-114c57-63,105-113,108-111c2,2-32,60-77,127c-72,111-111,182-126,231C3387.2,5585.3,3375.2,5584.3,3338.2,5553.3z"
		/>
	<path d="M2913.2,5458.3c-48-43-83-108-51-96c8,3,19,0,24-6c15-18,31-114,38-233c7-110,19-140,29-77c13,78,29,118,50,121
		c31,6,38,18,37,64c-3,64-33,210-49,236C2973.2,5497.3,2955.2,5495.3,2913.2,5458.3z M2958.2,5299.3c0-11-4-20-10-20
		c-5,0-10,9-10,20s5,20,10,20C2954.2,5319.3,2958.2,5310.3,2958.2,5299.3z"/>
	<path d="M482.2,5231.3c9-98,248-774,308-870c11-18,18-35,15-38c-2-3-31,32-62,78c-70,100-64,93-71,86c-10-11,148-313,346-658
		c177-310,178-315,34-112c-133,187-243,324-257,319c-24-8-10-96,27-174c20-42,35-77,34-79c-2-1-32,20-67,47c-91,71-104,64-41-24
		c17-23,46-67,63-97c43-72,525-716,566-754l31-30v31c0,19-15,52-41,89c-103,149-259,400-259,417c0,6,35-24,79-66
		c70-69,111-94,111-68c0,5-11,33-25,63c-17,36-21,54-13,57c19,6,62-53,113-157c55-113,81-152,101-152c24,0,16,48-23,139
		c-102,238-344,661-493,862c-116,156-339,670-446,1029C482.2,5267.3,478.2,5276.3,482.2,5231.3z M1067.2,3852.3
		c93-151,173-294,168-299c-11-11-257,392-257,421C978.2,3991.3,1000.2,3961.3,1067.2,3852.3z M1002.2,3729.3
		c128-180,140-199,133-207c-11-10-160,151-178,192c-10,22-38,78-63,124c-26,47-46,87-46,90C849.2,3938.3,895.2,3878.3,1002.2,3729.3
		z M944.2,3622.3c58-79,108-163,97-163c-10,0-86,104-130,177C866.2,3710.3,885.2,3702.3,944.2,3622.3z M1222.2,3487.3
		c-8-12-34,11-34,30c0,13,3,12,20-3C1219.2,3504.3,1225.2,3492.3,1222.2,3487.3z"/>
	<path d="M3858.2,5264.3c-20-24-24-103-10-232c23-229,50-282,50-99c0,70,6,126,20,177c22,84,25,122,10,150
		C3915.2,5283.3,3876.2,5285.3,3858.2,5264.3z"/>
	<path d="M2433.2,5129.3c-4-11-23-28-43-38c-33-15-38-22-44-65c-3-27-11-62-17-78c-12-36,1-46,34-25c18,12,25,13,33,3
		c5-7,40-83,77-169c61-144,83-181,86-145c3,37-7,84-43,197c-29,94-40,147-44,215c-5,96-10,125-24,125
		C2443.2,5149.3,2436.2,5140.3,2433.2,5129.3z"/>
	<path d="M3108.2,4962.3c0-16-8-49-17-75c-16-44-16-48,0-66c23-26,21-67-12-212c-15-69-27-127-25-129c19-23,76,93,145,297
		c42,121,49,172,25,172c-8,0-18-5-21-10c-4-7-19,2-38,20C3126.2,4997.3,3108.2,4997.3,3108.2,4962.3z M3155.2,4757.3c-3-7-5-2-5,12
		s2,19,5,13C3157.2,4775.3,3157.2,4763.3,3155.2,4757.3z"/>
	<path d="M4678.2,4899.3c0-183,71-549,146-757c49-137,118-301,156-375c50-99,46-44-7,84c-169,412-216,594-264,1027
		C4695.2,5008.3,4678.2,5019.3,4678.2,4899.3z"/>
	<path d="M4849.2,4956.3c-2-74,71-346,126-469c25-57,31-62,66-58c31,3,44-18,62-93c20-82,31-107,47-107c14,0,6,97-27,304
		c-14,92-32,170-41,185l-17,25l-23-27c-13-15-25-27-28-27c-2,0-9,14-15,30c-14,41-36,38-47-7c-9-38-9-38-36,62
		C4876.2,4919.3,4850.2,4991.3,4849.2,4956.3z"/>
	<path d="M3588.2,4756.3c98-95,228-202,236-194c3,3-10,22-28,43c-34,39-27,38,30-3c17-13,32-30,32-37c0-8-21-32-47-54l-48-40l54,10
		c67,12,83,6,75-27s7-32,39,5c15,17,34,30,42,30s15,7,15,15c0,19-68,95-85,95c-7,0-95,54-195,120s-187,120-193,120
		C3508.2,4839.3,3541.2,4801.3,3588.2,4756.3z"/>
	<path d="M3307.2,4580.3c-20-16-21-22-11-47c6-16,14-89,18-162c4-78,10-130,15-125c13,13,59,239,59,289
		C3388.2,4598.3,3353.2,4618.3,3307.2,4580.3z"/>
	<path d="M318.2,4195.3c0-12,145-217,274-386c272-357,518-640,556-640c18,0-25,54-153,195c-124,135-247,285-382,465
		c-64,85-151,196-282,360C324.2,4197.3,318.2,4200.3,318.2,4195.3z"/>
	<path d="M4663.2,4028.3c4-17,24-82,45-145s37-114,36-114s-33,30-71,68c-87,85-94,69-31-64c26-54,44-99,42-101c-2-3-41,39-86,91
		c-50,59-89,96-101,96c-32,0-25-19,66-181c33-59,68-121,77-138c17-30,43-49,54-38c3,3-4,27-15,53c-12,26-19,49-17,51
		c2,3,23-24,47-59c52-78,79-108,96-108c21,0,15,53-12,112c-25,53-36,113-14,76c13-22,48-23,56-2c3,9-11,59-32,112
		c-20,54-51,138-67,187c-16,50-36,100-44,113C4671.2,4070.3,4655.2,4065.3,4663.2,4028.3z"/>
	<path d="M3768.2,4013.3c0-24,781-864,802-864c5,0-4,19-21,43c-45,61-740,814-758,821C3772.2,4021.3,3768.2,4020.3,3768.2,4013.3z"
		/>
	<path d="M3765.2,3918.3c10-17,62-81,116-142c105-120,142-167,132-167c-4,0-35,20-69,45c-178,127-315,177-158,58
		c69-53,169-152,122-120c-120,79-326,185-337,173c-9-9,45-64,140-143c43-36,76-67,73-70c-2-2-35,18-73,45c-106,76-150,99-163,86
		c-17-17,28-64,165-173c116-92,291-258,282-267c-2-3-47,22-98,54c-128,80-204,122-219,122c-27,0,36-52,149-122
		c192-118,373-245,428-298c59-57,76-62,71-22c-1,15,1,49,5,75l8,48l-93,98c-136,143-261,281-253,281c4,0,63-48,132-106
		c161-137,192-157,209-143c8,6,25,8,39,5c17-4,25-2,25,7c0,18-41,66-245,287c-94,102-215,235-270,295c-54,61-104,113-109,117
		C3751.2,3957.3,3748.2,3948.3,3765.2,3918.3z M3763.2,3631.3c-7-7-45,29-45,41c0,6,11,0,25-13S3766.2,3633.3,3763.2,3631.3z
		 M4248.2,3335.3c0-6-34,23-75,64s-75,79-75,84c0,6,34-23,75-64S4248.2,3340.3,4248.2,3335.3z"/>
	<path d="M460.2,3777.3c-7-7-12-29-12-50c0-33,4-39,36-54c19-9,59-47,89-83s90-111,135-166c44-55,116-144,159-197
		c44-53,108-138,144-190c76-109,103-136,118-121c6,6,8,20,5,30c-15,46-122,213-238,369c-69,93-151,208-183,257c-46,68-64,87-82,87
		c-13,0-26-7-29-15c-11-28-25-15-54,49c-28,61-53,96-69,96C475.2,3789.3,467.2,3784.3,460.2,3777.3z"/>
	<path d="M24.2,3707.3c-29-40-14-78,30-78c28,0,47,23,47,56C101.2,3731.3,50.2,3745.3,24.2,3707.3z"/>
	<path d="M374.2,3597.3c-28-40-14-78,29-78c27,0,65,39,65,67C468.2,3624.3,398.2,3632.3,374.2,3597.3z"/>
	<path d="M143.2,3598.3c-14-22,8-62,77-141c84-98,74-113-29-44c-71,48-113,59-113,29c0-23,106-124,255-242c174-139,254-186,270-161
		c9,14-30,55-157,167c-53,47-99,91-102,99c-11,28,16,13,70-41c32-32,83-68,120-85c58-28,72-42,175-173c171-215,265-307,284-277
		c9,15-18,55-155,230c-67,85-126,165-132,177c-9,19-6,27,26,56c51,48,47,88-11,121c-8,4-26-8-48-31c-19-20-36-35-38-33
		c-2,3-19,28-39,55c-53,73-85,102-100,87c-18-18-38-15-76,14c-28,22-36,24-43,13c-17-25-39,19-39,78v53h-45c-34,0-55,7-87,30
		C161.2,3612.3,153.2,3614.3,143.2,3598.3z"/>
	<path d="M575.2,3451.3c-21-23-22-51-1-80c19-28,35-28,62,1s28,47,2,75C613.2,3474.3,596.2,3475.3,575.2,3451.3z"/>
	<path d="M-3.8,3411.3c-23-5-34-48-18-67c19-23,66-19,84,7c14,20,14,24,0,39C45.2,3409.3,21.2,3417.3-3.8,3411.3z"/>
	<path d="M118.2,3252.3c0-10,51-67,113-128c61-60,124-131,139-156s83-111,151-190c67-79,150-178,184-219c78-97,91-108,104-89
		c14,20,2,68-26,109c-13,19-89,109-169,200c-79,91-143,167-141,168c8,9,104-68,245-197c139-126,230-196,230-174c0,4-30,33-66,63
		s-135,128-220,216c-99,104-180,179-226,210c-40,27-111,77-158,110c-77,56-140,94-155,94C120.2,3269.3,118.2,3261.3,118.2,3252.3z"
		/>
	<path d="M3198.2,3144.3c18-46,49-100,119-205c39-58,71-110,71-116c0-18,53-35,114-37c69-1,86,12,62,48c-21,31-45,43-56,25
		c-10-17-80,48-168,155C3223.2,3157.3,3177.2,3199.3,3198.2,3144.3z"/>
	<path d="M2311.2,3089.3c-34-8-49-17-95-59c-36-32-35-41,6-41h33l6-87c4-47,11-91,16-96c11-11,34,38,55,119c8,29,24,67,36,83
		C2408.2,3065.3,2380.2,3104.3,2311.2,3089.3z M2308.2,2944.3c-16-50-34-45-26,7c9,53,16,65,28,44
		C2316.2,2984.3,2315.2,2966.3,2308.2,2944.3z"/>
	<path d="M8538.2,2972.3c0-13,142-23,319-23c263,0,562-28,716-66c221-55,844-278,951-340c43-25,99-33,92-12c-6,17-111,68-318,153
		c-255,106-276,113-440,157c-291,77-427,107-525,118C9191.2,2974.3,8538.2,2985.3,8538.2,2972.3z"/>
	<path d="M2534.2,2937.3c16-18,65-70,107-116c43-45,75-87,72-92c-3-6-18-10-31-10c-52,0-16-25,55-39c61-12,76-12,97,0
		c39,21,46,41,28,92c-18,54-41,78-49,53c-3-9-7-23-10-31c-6-22-32-7-170,94C2515.2,2974.3,2486.2,2989.3,2534.2,2937.3z"/>
	<path d="M1683.2,2667.3c-4-25-5-107-4-182c4-119,6-137,23-149c22-16,14-37-15-37c-26,0-25-34,3-60c26-24,61-26,82-4
		c20,19,20,47,2,82c-8,15-26,103-40,196C1704.2,2705.3,1693.2,2736.3,1683.2,2667.3z"/>
	<path d="M351.2,2669.3c-50-20-16-91,107-222l72-78h-57c-76,0-95-11-95-57c0-33,11-48,123-160c145-148,272-259,329-290
		c51-29,101-30,128-3c25,25,26,50,2,50c-71,0-209,92-381,256c-147,140-141,143,67,44c110-52,149-67,159-58c26,21,12,46-64,119
		c-43,41-120,115-172,164c-116,111-151,158-151,200S397.2,2687.3,351.2,2669.3z"/>
	<path d="M3835.2,2594.3c-16-39-37-234-37-331c0-95,2-104,21-114c50-28,99,16,73,65c-20,39-33,140-35,260
		C3857.2,2581.3,3847.2,2628.3,3835.2,2594.3z M3835.2,2272.3c-3-10-5-2-5,17s2,27,5,18C3837.2,2297.3,3837.2,2281.3,3835.2,2272.3z
		"/>
	<path d="M3054.2,2549.3c34-116,105-286,126-303c27-23,96-20,112,5c8,13,5,22-13,40c-41,42-128,156-177,233c-26,41-51,75-55,75
		S3046.2,2576.3,3054.2,2549.3z"/>
	<path d="M8902.2,2566.3c-12-31,1-52,42-67c52-19,72-36,76-62c6-43,126-119,268-171c171-63,424-175,523-233c82-47,122-54,122-19
		c0,28-124,102-431,255c-227,113-266,136-309,181C9112.2,2535.3,8920.2,2612.3,8902.2,2566.3z"/>
	<path d="M1958.2,2559.3c0-18,243-188,326-227c30-15,35-15,58,1c50,32,26,70-59,91c-33,9-115,45-182,80
		C1978.2,2570.3,1958.2,2577.3,1958.2,2559.3z"/>
	<path d="M6348.2,2405.3c0-8,40-35,89-60s109-62,132-82c39-32,44-34,48-18c5,28-69,89-164,135
		C6365.2,2422.3,6348.2,2426.3,6348.2,2405.3z"/>
	<path d="M5748.2,2364.3c-113-13-206-23-207-24c-2-1-3-7-3-15c0-32,114-53,346-62c159-7,162-7,173,14c10,18,21,22,67,22
		c47,0,56,3,63,23c12,31-4,45-68,57C6047.2,2393.3,5989.2,2390.3,5748.2,2364.3z"/>
	<path d="M2628.2,2257.3c0-8,9-44,21-79c37-116,89-329,89-367c0-50,14-62,72-62c44,0,48,2,48,24c0,12-25,73-55,135s-75,162-101,224
		C2657.2,2242.3,2628.2,2292.3,2628.2,2257.3z"/>
	<path d="M8608.2,2195.3c0-8,11-17,25-20c13-3,38-21,55-39l31-32l-7,30c-12,54-31,75-69,75
		C8620.2,2209.3,8608.2,2204.3,8608.2,2195.3z"/>
	<path d="M2668.2,1967.3c0-7,9-31,19-53c16-32,20-36,20-17c1,22-24,82-34,82C2670.2,1979.3,2668.2,1973.3,2668.2,1967.3z"/>
	<path d="M1864.2,1926.3c3-9,31-37,62-64c173-150,262-191,291-135c18,36-5,54-160,127C1879.2,1938.3,1856.2,1947.3,1864.2,1926.3z"
		/>
	<path d="M8783.2,1909.3c-9-15,17-53,49-69c23-13,28-13,43,2s14,18-16,46C8825.2,1919.3,8794.2,1928.3,8783.2,1909.3z"/>
	<path d="M9134.2,1791.3c-11-18,30-57,118-113c88-57,126-71,126-47c0,19-82,90-151,131C9162.2,1800.3,9143.2,1806.3,9134.2,1791.3z"
		/>
	<path d="M5881.2,1692.3c9-2,23-2,30,0c6,3-1,5-18,5C5877.2,1697.3,5871.2,1695.3,5881.2,1692.3z"/>
	<path d="M6133.2,1417.3c-36-19-126-111-227-232c-109-130-128-160-110-178c24-24,67,7,204,144c180,181,221,233,208,259
		C6196.2,1431.3,6164.2,1434.3,6133.2,1417.3z"/>
</g>
<g>
	<path d="M1054.4,776.7c0.2,0.1,0.4,0.1,0.6,0.1L1054.4,776.7z"/>
	<path d="M1055,776.9c0.3,0,0.7-0.2,1.2-0.5L1055,776.9z"/>
	<path d="M1012.5,763.1c-0.3,1.3-2.3,10.2-3.2,11.9c-0.8,1.6-2.6-1-5.8,1.1c-3.5,2.3-0.3,4.3-5.9,2.7l-3.7-1l2.7-2.4
		c2.4-2.1,2.6-2.6,1.3-3.5c-0.8-0.5-2.4-1-3.5-1c-1.1,0-2.8-0.9-3.8-2c-0.9-1.1-2.4-2-3.3-2c-0.8,0-1.4-0.6-1.1-1.3
		c0.1-0.3,0.4-0.5,0.8-0.7l-29.1-6.4c0.1,0.4,0,0.8-0.1,1c-0.8,0.7-19.5-1.4-23.6-2.7c-3.9-1.3-5.9-4.4-4.1-6.5
		c0.7-0.8,2-1.3,4.4-1.3l-7.7-8.8c1.1,3.5,1.3,5.7,0.3,5.7c-0.5,0-1.3,0.9-1.6,2c-0.3,1.1-1.2,2-1.9,2s-5.3-3.3-10.2-7.4
		c-4.9-4.1-9.1-7.3-9.3-7c-0.2,0.2,1.6,3,4.1,6.1c13.1,16.9,13.6,17.8,9.6,20.6c-2.9,1.9-2.1,2.7,3.1,3.4c2.3,0.3,4.1,1.1,4.1,1.7
		c0,0.6-2.4,3.5-5.3,6.4l-5.2,5.2l-6.9-9.1c-3.8-4.9-7-8.8-7.2-8.6c-0.3,0.2,1.4,4.3,3.6,9.2c2.2,4.8,4,9.3,4,10.1
		c0,1.6-7,3.7-10.8,3.2c-2.1-0.2-3.3-1.5-5.5-5.6c-3.3-6.1-5.2-6.8-4.4-1.7c0.3,1.9,0.3,3.5-0.1,3.5c-0.4,0-5.4-2.7-11.2-5.9
		c-5.7-3.3-10.7-5.7-11-5.4c-0.3,0.3,3.7,4.4,8.9,9.2l9.4,8.7l-2.7,2.1c-3.9,3.1-3.3,4.3,2.4,4.3c4.6,0,5,0.2,5,2.3
		c0,3.4-2,5.5-6.9,7.2c-6.3,2.2-8.6,1.9-12.4-1.8c-3.2-3-3.5-3.8-4.1-11.2c-0.9-10.1-2.1-12.4-3-5.7c-0.9,7.1-2.7,8.2-6.1,3.8
		c-2.9-3.8-6.9-14.5-8-21.4c-0.7-4.1-0.5-4.4,3.9-8.8c2.5-2.5,4.6-4.9,4.6-5.4c0-0.6-1.6-1-3.5-1c-1.9,0-3.5-0.3-3.5-0.8
		c0-0.4,1.6-6.7,3.4-14c1.9-7.2,3-13.2,2.6-13.2c-1.5,0-3.9,4.8-7.1,14c-1.8,5-3.8,9.4-4.6,9.7c-0.8,0.3-2.6,0-4-0.6
		c-3.5-1.6-3.9-0.8-2.5,4.6c0.7,2.5,1.1,4.7,1,4.8c-0.2,0.2-3.3-0.3-7-1c-4.8-0.9-8.8-2.5-13.5-5.5c-3.8-2.4-8.5-5.4-10.5-6.7
		c-4.2-2.6-4.6-3.7-2-5.2c1.5-0.9,1.5-1.2,0.2-2.1c-0.8-0.5-2.3-1-3.2-1c-1,0-1.8-0.4-1.8-0.8c0-0.5,4.3-6,9.6-12.3
		c5.2-6.3,10-12.2,10.5-13.2c2.1-3.7-2-1.6-9.5,5.1c-4.3,3.7-9.8,8.4-12.3,10.5l-4.6,3.8l-2.7-2.6c-1.4-1.4-2.9-2.5-3.3-2.5
		c-0.4,0-0.7,2.4-0.7,5.4c0,6.8-2.3,9.8-8.7,11.7c-7.4,2.1-16.2,1.6-22.6-1.4c-8.3-3.8-9.7-5.6-9.7-12.7c0-6.3-1.3-7.8-3-3.5
		c-0.5,1.4-1.3,2.5-1.8,2.5c-1.1,0-6.7-12.2-8-17.5c-2.7-10.5-3.3-12.3-4.7-13.5c-2-1.7-2,0.1,0.5,12c1.1,5.2,2,11.4,2,13.8
		c0,3.6-0.4,4.4-2.5,5.4c-2.8,1.3-3.2,2.6-1,3.3c5.2,1.7,5.2,1.5,2,4.2c-3.3,2.7-18.1,10.3-20.2,10.3c-0.8,0-2.2-1.3-3.1-3
		c-2.3-4.1-4.4-3.9-4,0.2l0.3,3.3l-7.4-0.2c-9.1-0.3-11.7-1.7-12.6-7.3c-0.7-4-0.7-4.1-2.2-2c-2.2,3.1-5.6,2.3-6.4-1.6
		c-0.3-1.7-2.3-6.3-4.4-10.2c-8.9-16.5-12.1-15.9-4,0.7c3,6.2,5.5,11.6,5.5,12.1c0,0.4-1.8,1.1-4,1.5c-4.3,0.7-6.1,2.2-3.6,3
		c5.2,1.6,5.2,1.7,2.8,2.6c-2.9,1.1-2.4,3.1,0.8,3.9c1.3,0.3,2.5,1.1,2.7,1.7c0.7,1.9-8.1,10.7-13.4,13.5
		c-5.7,3.1-19.4,7.1-21.5,6.3c-0.8-0.3-2.3-2.3-3.3-4.3l-1.8-3.7l-1,3.2c-0.5,1.8-1.4,3.3-1.9,3.3c-0.4,0-5.7-3-11.6-6.7
		c-12-7.4-20.1-11.5-21.4-10.7c-0.5,0.3,2.4,2.9,6.4,5.7c4,2.9,10.2,8,13.8,11.4l6.5,6.1l-2.9,3.1l-3,3.1h3.2c1.9,0,3.5,0.6,3.8,1.4
		c0.6,1.4-3,21.8-4.7,27.4c-1.4,4.4-5.2,8.7-10.5,11.8l-4.4,2.6l-5.7-5.1c-8-7.2-9.9-7-3.9,0.4l3.5,4.2l-19,0.5
		c-17.5,0.5-21.1,0.9-19.7,2.3c0.2,0.3,7.6,1.3,16.4,2.3c15.4,1.7,15.9,1.8,15.6,4c-0.3,1.9,0.1,2.2,3.3,2.2h3.7l-0.7,10.2
		c-0.4,6-1.5,12.4-2.6,15.3c-1.1,2.7-1.9,6.3-1.9,7.8c0,2.9-4.2,12.1-6,13.2c-2,1.2-2.1-0.2-0.5-6.9c2.2-9.6,2.1-10.5-1-7.6
		c-1.4,1.3-2.5,2.2-2.5,1.9c0-0.2,1.1-4.6,2.5-9.7c2.8-10.5,3.2-16.2,1.2-16.2c-4.4,0-8.7,11.7-12.1,33c-0.9,5.2-2.5,22.7-3.6,38.9
		c-2,28.3-2.2,29.5-4.8,34l-2.7,4.6l-0.7-4c-0.6-3.8,0.7-33.4,1.7-37.9c1.4-5.9,2.2-19.2,1.4-21.4l-1-2.5l-2.4,2.3
		c-1.4,1.3-2.7,2.1-3,1.8c-0.8-0.7,1.3-25,3.2-37.6c1.3-8.7,1.4-11.5,0.5-12.4c-1.8-1.8-6.1,2.9-7.2,7.8c-1.2,5.4-2.8,28.1-3.5,50.9
		c-0.5,15-0.3,21.3,1,30c0.9,6,1.9,16.5,2.2,23.3c0.5,10.9,0.4,12.4-1.2,14.2c-2.6,2.8-4.1,2.5-5.5-1.3c-4.2-11.7-6.4-44.5-5.7-84.1
		c0.5-34,1.8-42.9,9.1-62c3.7-9.8,3.2-14.6-1.5-14.6c-2.8,0-8,5.1-10,9.8c-5.2,12-6.9,27.4-7.6,69.7c-0.4,24.6-0.9,33.2-1.6,31.5
		c-0.7-1.6-1.1-20.5-1.1-52c-0.1-49-0.1-49.6,2.2-56.8c1.3-4,2.2-8.5,2-10l-0.3-2.6l-3.6,3.2c-5.2,4.6-6.5,8.7-9.4,30.1
		c-0.9,6.3-1.8,11.7-2.2,12c-1.2,1.2,0.7-28.8,2.7-40.8c1.1-6.8,1.8-12.6,1.6-12.8c-0.8-0.8-3.4,5-5.3,11.7
		c-1.5,5.4-1.8,10.2-1.7,28c0,19.5,0.5,25,4.7,58.5c4.2,33.2,8.9,65,10.3,69.7c0.9,3.1-1.1,1.9-2.3-1.3c-1.5-4-3.5-3.3-4.9,1.7
		c-1,3.6-1.2,3.7-2.2,1.8c-0.6-1.2-2-4.3-3.1-7.1c-6.5-16.6-11.1-22.7-11.1-14.7c0,4.2,1.1,8.2,9.6,35.3c3.6,11.2,6.2,20.6,6,20.9
		c-0.7,0.6-1.8-2-10-24c-3.6-9.8-7.1-19.9-7.7-22.5c-4.8-20-12.4-42.2-19.9-57.8c-2.6-5.5-7.8-19.5-11.5-31
		c-10.4-33-12.7-39.7-13.2-39.1c-0.3,0.2,0.6,5.4,1.8,11.5c1.3,6.1,2,11.3,1.7,11.6c-1.1,1.2-33.8-16.7-33.8-18.5
		c0-0.3,1.8-2.7,4-5.4c5-6,5.4-8.5,1-5.9c-2.7,1.5-3.2,1.6-4,0.3c-0.7-1.2-1.2-1.2-2.2-0.2c-2.5,2.5-3,1.1-2.4-5.6
		c1.7-15.9,8-31.5,13.4-32.8c1.5-0.4,4-1.7,5.5-2.8c1.5-1.2,9.4-5.7,17.4-10.1c8.1-4.4,14.8-8.6,15.1-9.3c0.7-2.1-4.2-1.4-10.9,1.7
		c-6.1,2.7-27.1,10.1-28.9,10.1c-0.4,0-0.6-1.8-0.3-4.1c0.5-3.4,0.2-4.4-2.1-6.8c-2.4-2.5-2.8-3.9-3.2-10.7c-0.3-4.4-1-8.9-1.6-10
		c-1.3-2.7-0.7-5.9,1.1-5.9c0.8,0,2.6,2,4.1,4.5l2.6,4.5l7.9,0.9c5.7,0.6,9.3,0.5,12.8-0.4l5-1.3l3.8,4.2c4.4,4.7,5.6,5,6.9,1.7
		c1.3-3.5,5-3.9,12.6-1.4c6.1,2,6.7,2,7.6,0.5c1.9-3.6,6.6-0.9,11.3,6.5c2.6,4.2,3.9,3.5,3.2-1.7c-0.8-5.4-0.5-5.6,9.3-7.1
		c4.1-0.7,8.3-1.5,9.3-1.9c1.4-0.6,3.5,1,9.3,6.9c10,10.3,11.2,9.4,4.9-3.6c-1-2.1-1.5-4.1-1.1-4.5c1.7-1.7,13.2-1.5,18.9,0.5
		c3.2,1,6,1.5,6.3,1.1c0.7-1.3-4.3-10.6-6.1-11.3c-0.9-0.3-3.4-0.6-5.6-0.6s-6.8-1.2-10.2-2.6c-6-2.6-6.5-2.6-15-1.5
		c-4.8,0.6-11.1,1.9-14,2.9c-4.2,1.4-5.3,2.2-6.1,4.7c-1.6,5.6-2.1,6-6.7,5.7c-2.8-0.1-7.8-1.9-13.4-4.7c-9.7-4.9-14-5.5-18.1-2.9
		c-2.2,1.5-3,1.5-6.4,0.4c-3.3-1.1-4.7-1.1-8,0c-3.7,1.2-4.7,1.1-10.3-0.8c-3.4-1.1-7.6-2.4-9.3-2.7s-4.2-1.8-5.6-3.3
		c-4.8-5.2-10.8-14.5-10.8-16.8c0-2.6,5.9-7.9,9.7-8.9c6.1-1.5,12.2-5.4,20.5-13.2c4.9-4.6,9.6-8.3,10.4-8.3c2.1,0,1.7,3.7-0.6,5.7
		c-2.7,2.3-2.5,4.1,0.5,4.9c4.1,1,5.5-0.1,5.5-4.4c0-6,3.2-10.8,13.6-20.5c14.1-13.3,13.4-12.9,23.9-14.2c7-0.9,11.3-2.2,18.3-5.4
		c5.7-2.7,9.9-4,11.1-3.6c3.6,1.1,3.8,10.6,0.3,16.7c-2,3.5-0.3,5.8,4.2,5.8c4.7,0,5.6-1.5,5.7-9.5c0.2-10.4,0.9-12.9,3.9-13.3
		c1.4-0.2,6.1-1.5,10.5-2.9c10.6-3.3,25.9-3.8,28-0.9c2.3,3.1,3,12,1.2,15.6c-2.1,4-1.3,5.8,2.9,6.6c4.5,0.8,8.1-0.2,9.5-2.7
		c0.9-1.8,0.7-2.5-1.4-4.8c-3.3-3.5-6.7-9.2-6.7-11.3c0-2.3,2.1-2.8,13.5-3c11.3-0.2,24,2.6,31.2,6.8c2.3,1.3,5.1,2.4,6.3,2.4
		c2.3,0,12.1,9.2,17.4,16.3l2.9,3.8l-1.2,10.1c-1.1,10.1-3.4,16.8-5.8,17.6c-0.8,0.2-1.3-0.5-1.3-1.7c0-4.5-12.2-3.4-13.9,1.2
		c-1.7,4.5-9.4,8.7-15.8,8.7c-1.8,0-5,0.7-7.1,1.6c-2,0.9-6.5,2-9.9,2.4c-3.5,0.4-6.9,1.4-7.8,2.4c-0.9,0.9-2.5,1.6-3.6,1.6
		c-2,0-5.3,2.8-6.1,5.1c-0.4,1.1-0.9,1-2.3-0.5c-1.6-1.6-2.9-1.8-8.4-1.3c-8.4,0.8-18.1,4.1-21.7,7.4l-2.8,2.6l2.3,1.6
		c1.3,0.9,3.6,2.8,5.1,4.3c3.5,3.5,7.4,3.6,15,0.6c3.7-1.4,7.9-2.1,12.9-2.2c7.1-0.1,7.4,0,10.1,3.2l2.7,3.3l2.7-3.1
		c1.4-1.7,2.6-3.7,2.6-4.4c0-2.2,4-6.6,7.8-8.5c2.1-1,7.5-2.6,12.2-3.6c4.7-0.9,12.4-3.2,17.1-5.1c9.6-3.8,10.8-3.9,19.1-2.2
		c3.1,0.7,6.1,0.9,6.5,0.5c0.4-0.4-1.2-2.7-3.5-5c-2.3-2.4-4.2-4.9-4.2-5.7s0.9-3.9,2-6.8c1.1-2.9,2-7.6,2-10.6
		c0-7.4,1.3-8.3,13-9.2c15.1-1.1,15.8-2.5,2.1-4.3c-9.9-1.3-16.5-4.8-23.9-12.5c-6.9-7.2-7.2-8.3-4.6-17.8c0.9-3.2,1.4-6.1,1.1-6.5
		c-0.4-0.3-2.9,1.5-5.6,4c-3.9,3.7-5.7,4.7-8.3,4.7c-3-0.1-23.5-5.2-24.1-6.1c-0.2-0.2,0.1-6.1,0.6-13c1.5-19.3-0.2-20.8-5.4-5.1
		c-1.7,5.3-4,11.3-5,13.3c-1.7,3.5-2.2,3.7-8,4.4c-5.9,0.7-6.2,0.6-9.3-2.4c-3.8-3.7-4.2-3.8-4.9-1c-0.5,1.8-1.1,2.1-3.8,1.5
		c-4.7-0.9-5.5-1.9-7.9-9.9c-1.2-4-2.7-7.8-3.2-8.4c-1.7-2.1-3.1-0.2-2.5,3.4c0.8,4.8-1,13.5-3,15.1c-1.8,1.3-11,4.3-16.8,5.6
		c-2.8,0.6-3.2,0.3-5.2-3.6c-1.9-3.7-2.2-4-2.3-1.8c-0.1,3.6-1.3,5.1-4.6,5.3l-2.9,0.2l-0.6-15c-0.3-8.3-0.7-15.2-0.7-15.5
		c-0.1-0.2-0.7,0.1-1.2,0.6c-0.6,0.6-1.9,7.3-3,15c-1.3,9.1-2.6,14.8-3.8,16.4c-1,1.4-4.7,4-8.2,5.8c-10.4,5.3-14.2,3.5-26.8-13.1
		c-9.8-12.9-14.5-18.2-15-16.9c-0.4,1.4,0.9,3.9,7.5,13.9c2.9,4.5,6.4,10.5,7.8,13.4c2.3,5.1,2.3,5.4,0.7,8.2
		c-2.8,4.7-17.9,20-19.4,19.5c-0.7-0.3-1.6-2.9-2.1-5.9c-0.4-3-1-6.1-1.4-6.9c-0.8-1.8-2.1,6.3-2.2,13.8l-0.1,5.3l-4.7-3.9
		c-5.5-4.6-8.8-6.4-9.7-5.5c-0.3,0.4,0.1,1.4,1,2.4c0.9,1,1.8,3.5,2.1,5.6c1,7.8-9.7,17.6-20.6,18.8c-3.1,0.3-7.3,1.3-9.4,2.2
		c-5.6,2.4-7.2,0.5-7.2-8.5c0-6.6,0-6.7,3-7.2c2.3-0.4,3.1-1.1,3.3-3.1c0.2-1.6,1.4-3.2,3.5-4.4c8.5-4.8,28.7-20.5,26.5-20.5
		c-0.3,0-6.7,2.9-14.3,6.5c-16.9,8-18.2,8.4-18.7,5.4c-0.4-3.2-2.6-3.5-3.4-0.4c-0.5,1.9-0.9,2.3-1.5,1.4c-0.6-1-1.3-1-3.5-0.1
		c-2.2,1.1-3.1,1-5.3-0.4c-4.2-2.7-21.1-20.1-21.1-21.8c0-0.9,1.4-2.3,3.1-3.2c2.9-1.4,3.1-1.9,2.5-5.2c-0.3-2.1-0.6-4.3-0.6-5
		c0-0.6-0.9-1.2-2-1.2c-1.8,0-1.8-0.6,1.6-9.8c6.8-18.5,8.2-22.7,7.8-23.1c-0.7-0.7-2.8,2.6-10.1,15.7c-7.4,13.5-12.2,20-12.3,16.9
		c0-1.1-0.6-1.7-1.2-1.4c-0.8,0.3-1.2,2.1-1.1,5.1c0.1,3.4-0.2,4.6-1.3,4.6c-1.8,0-2.4-1.6-3.8-9.3c-1.3-7.4-3.6-8.9-3.6-2.4
		c0,2.4-0.6,4.9-1.3,5.5c-1.7,1.4-10.9-3-14.2-6.9c-2.5-3.1-3.3-7.3-1.5-8.4c0.6-0.3,1-1.7,1-3c0-1.7-0.6-2.5-2.2-2.7
		c-1.9-0.2-2.3-0.9-2.1-3.7c0-1.8,0.6-3.8,1.1-4.3c1.5-1.5,10.9-1.4,16.5,0.1c5.1,1.5,7.3,0.8,4.4-1.3c-0.9-0.8-7.6-3.5-14.7-6.1
		c-7.2-2.6-14-5.5-15.2-6.5l-2.2-1.8l2.2-9.4c4.1-16.9,9.2-24.8,15.9-24.8c1.8,0,3.5,0.6,3.7,1.2c1.4,4.6,1.7,5.1,2.7,4.1
		c0.6-0.6,1.3-2.9,1.6-5.2c0.8-5.6,2.6-5.4,14.8,1.9c5.4,3.2,10.1,5.7,10.4,5.4c0.3-0.2-3.4-4.4-8.2-9.2c-8.7-8.8-8.8-8.8-6.7-10.7
		c2.8-2.5,2.5-3.5-1-3.5c-4.3,0-4.9-2.1-3.4-12.5c1.8-12,2.2-13.5,3.8-13.5c1.7,0,4.6,3.2,4.6,5.2c0,1.6,4.7,6.8,6.1,6.8
		c1.6,0,0.9-2.1-3.6-10.6c-4.2-8.1-4.8-11.4-2-11.4c0.7,0,1.8,1.4,2.4,3.1c1.2,3.6,2.7,3.1,3.6-1.3l0.7-3.1l8.2,0.6
		c4.4,0.3,13.9,1.8,20.9,3.2c22,4.6,18.4,1.1-6-5.6c-17.4-4.8-18.3-5.2-18.3-8.6c0-2.6-0.6-2.7-5.4-0.7c-1.8,0.7-1.9,0.3-1.3-7.2
		c0.6-7.9,5.3-25.9,8.3-31.7l1.6-3.1l1.4,3.3c1.9,4.4,5.2,4,6.8-0.9c1.1-3.4,1.3-3.5,5.6-3.2c2.5,0.2,8.9,1.4,14.2,2.7
		c9.8,2.5,16.8,3.2,16.8,1.7c0-1.3-4.1-3-18-7.3c-6.9-2.2-13.8-4.5-15.4-5.1l-2.8-1.1l6.1-2.8c3.8-1.7,6.1-3.4,6.1-4.4
		c0-1.4-0.7-1.5-4.6-0.9c-5.8,0.8-6.4,0-6.3-9.1c0-10.5,1.2-15.2,4.8-18.9c1.7-1.7,3.1-3.8,3.1-4.6s0.9-3.4,2-5.8
		c1.8-3.9,2.2-4.2,5.9-4.2c2.3,0,8.7,1.9,15.8,4.6c12.7,5,21.3,7.6,21.3,6.5c0-0.4-8.1-4.7-18.1-9.6c-9.9-4.8-18.3-9.4-18.6-10.1
		c-0.3-0.7,0.7-2.8,2.1-4.7c1.4-1.9,2.6-4.2,2.6-5.2c0-1.6-0.1-1.6-2.6,0l-2.7,1.7l0.7-3.8l0.7-3.9l-3.1,3.7c-1.7,2.1-3.5,3.8-4,3.8
		c-1.9,0-3.3-11.7-2.7-24.1c0.7-15.3,1.9-18.7,7.8-22c2.8-1.5,4.5-3.3,4.9-4.9c0.5-2,3-3.7,13.5-9c12.4-6.2,16-9,11.6-9
		c-1.1,0-9.5,2.5-18.6,5.6c-9.2,3.1-16.9,5.3-17.2,5.1c-0.2-0.3,0.5-2.7,1.6-5.2c3.1-7,2.6-7.4-2.4-2.5l-4.5,4.4l-3.1-3
		c-5-4.6-7-10.4-7.6-21.3c-0.5-8.2-0.3-10.3,1.4-14.1c1.1-2.5,2.3-5.3,2.6-6.2c0.7-2.1,5.4-3.4,17.9-5.2c16.6-2.4,15.3-4.4-2.9-4.5
		c-8.9-0.1-11.5,0.2-12.7,1.5c-0.9,0.8-1.6,2-1.6,2.5s-0.6,0.9-1.4,0.9c-2.2,0-2.8-3.3-2.1-10.8l0.6-6.7l-2.2,2.8l-2.2,2.8l-3.9-3.8
		c-3-2.8-3.9-3.3-3.5-1.8c1.5,5.3,1.9,9.5,0.8,9.5c-1.8,0-12.6-11.2-16.4-17c-1.9-3-4.3-8.4-5.2-12c-3.6-13.8-3.6-12.4,0.6-18.1
		c4.3-5.7,4.6-7.5,0.6-3.5c-6.2,6.2-6.2,1.1-0.1-13.7c9.8-23.7,11.2-27.7,9.5-27.7c-0.5,0-4.1,6.2-7.9,13.7
		c-8.3,16.4-11.5,22.3-12.2,22.3c-0.3,0-1.4-1.6-2.5-3.6c-1.7-3.2-5.1-6.1-6.1-5.2c-0.2,0.2,0.4,2.7,1.3,5.5
		c2.1,6.5,1.2,7.8-6.4,9.3c-10,2.1-19.7-0.7-23.7-6.8c-3.4-5-7.2-17-8.7-27c-1.3-8.3-2.5-10.5-3.1-5.5c-0.5,4.7-2.2,3.1-3.8-3.4
		c-0.4-1.4-0.7-2.6-1-3.6l-1.4,1.1c1.5,7,5.5,21.6,7.3,26.5c1.2,3.1,3.7,7.6,5.5,10c3.7,4.8,6.6,10.1,6.6,11.9
		c0,0.7-3.7-2.4-8.2-6.8c-8.9-8.6-16.8-14.2-23.3-16.3c-2.2-0.8-10.2-1.6-17.8-1.9l-13.7-0.6l-3.5-6.6v-11.7c0-14-1.2-17.1-7.8-20
		c-2.3-1.1-4.4-1.8-4.5-1.6c-0.2,0.1,0.4,2.9,1.4,6.1c1.5,4.6,1.9,9.1,1.9,21.3c0,15.5,0,15.6-3.2,22.1c-4.6,9.2-9.5,14.4-21.8,22.9
		c-11.2,7.8-20.5,16.9-20.5,20.1c0,2.2,0.4,2,5.3-1.5c2.2-1.6,4.5-2.1,10-2.2c7.1-0.1,17.9-3.4,23.2-7c3.7-2.6,4.5-1.8,4.5,4.3
		c0,6.7,0.7,6.4,2.4-0.9c1.1-4.9,1.4-5.3,4.3-5.6c1.7-0.2,4.5,0.4,6.2,1.3c2.9,1.5,20.5,15.7,21.6,17.4c0.2,0.5-2.8,1.7-6.7,2.7
		l-7.2,1.9l5.6,0.7c3.2,0.4,7.5,1.6,9.7,2.7c9.5,4.9,15.1,3.5,15.1-3.8c0-2.1,0.3-6,0.6-8.7l0.6-4.9l-2.5,2.7
		c-2.5,2.7-2.5,2.7-3.2,0.5l-0.6-2.2l-0.9,2.2c-1.2,3-2.9,2.9-7.6-0.3c-7-4.7-20.4-15.5-20.4-16.4c0-0.4,1.9-2.2,4.2-3.9
		c2.6-2,3.6-3.2,2.7-3.5c-4.5-1.3-11.9-4.1-15.3-5.8l-3.8-2l3.6-2.4c10.1-6.9,18.3-9,25.2-6.4c1.8,0.7,3.6,0.7,5.8-0.1
		c2.7-1,3.9-0.8,8.4,1.1c2.9,1.2,5.2,2.6,5.2,3s-2.6,1.8-5.7,3.1c-3.2,1.2-8.3,3.5-11.4,5c-9.3,4.6-11,8.9-2,5
		c6.4-2.7,8.7-2.7,12.3,0.4c2.4,2,4,2.5,8.4,2.5c3,0,7.1-0.7,9.1-1.5c1.9-0.8,4.4-1.5,5.4-1.5c2.3,0,6.7,5.7,7.5,9.9
		c1.3,6.2,4.3,4.5,5.5-3c1.2-7.6,2.3-8.2,14.6-7.6c5.6,0.3,11.1,1,12.1,1.6c1,0.6,2.7,3.2,3.7,5.8c3.2,8.8,15.5,27.2,24.1,36.3
		c9,9.5,8.5,8.4,10,24.4c0.6,7.2,6.9,28.2,9.9,33.3c0.9,1.6,3,3.6,4.7,4.6l3.1,1.8l-0.9,6.2c-0.5,3.4-0.8,12.5-0.8,20.3
		c0.1,12.1,0.5,15.3,2.9,23.3l2.7,9.3l-2.5,7.7c-3.7,11.2-6.8,27-7.7,40c-0.7,11.1-0.9,11.5-4.7,17c-4.8,6.7-7.3,11.5-12.7,24.1
		c-3.7,8.9-4,10.2-4.2,20c-0.2,9.9-0.3,10.6-2.9,12.7c-1.4,1.3-3.5,2.3-4.5,2.3c-2.4,0-5-2.6-5-5.1c0-6-5.3-7.9-8.9-3.3
		c-3.6,4.6-2.8,6.7,4.4,11.8c3.5,2.6,6.7,5.1,7,5.6s-0.3,3.5-1.4,6.7c-1,3.2-2.5,9.4-3.2,13.7c-1.3,8.5-1.8,9.3-16.1,26.1
		c-7.9,9.3-12.7,18.9-14.4,28.5c-2,11.6-3,12.8-13.1,15c-2.9,0.7-7.1,2.5-9.3,4.1c-4.8,3.5-10,11.2-10,14.8c0,5.3-2.1,10-6,13.5
		c-2.2,2-4.9,3.6-6.1,3.6c-1.4,0-1.9,0.5-1.7,1.7c0.5,2.5,3.6,1.9,9.5-1.7l5-3.1l6.1,1.5c11.3,3,22.3,1.8,29.5-3.2l3.8-2.5l5.2,5
		c2.9,2.8,7.8,6.7,10.9,8.7c7.3,4.6,7.9,6.6,4.2,14.3c-3.8,7.8-4.2,9.5-3.2,11.5c2.2,4.4,8.1,0.6,9.2-5.8
		c2.4-13.7,2.6-14.4,5.2-14.4c4.7,0,8.1,2.8,13.2,10.9c3.5,5.5,6.5,8.9,9.4,10.7c2.4,1.5,6,4.1,8,5.7s5.2,3.2,7,3.6
		c2.9,0.6,3.4,1.2,4,4.6c0.4,2.2,0.7,8.4,0.7,13.7c0.1,12.7,1.5,18.8,5.7,24.6c10.1,14.2,9.6,13.1,9,20.2c-0.3,3.6-1,10.9-1.6,16.3
		c-0.9,9.4-0.8,10.1,1.5,15.7c1.4,3.3,2.5,7.2,2.5,8.6c0,1.5,0.7,3.5,1.6,4.5c1.4,1.5,1.3,2.2-0.9,7.5c-2.9,6.8-4.1,12.6-6.1,27.9
		c-0.8,6-2.9,15.9-4.7,22c-3,10.5-3.1,11.5-2.4,22.3l0.7,11.4l-6.5,6.6c-6.8,7.2-12.4,14.9-11.4,15.8c0.3,0.4,3.2-1.7,6.4-4.5
		c3.1-2.8,6.3-5.1,7-5.1c0.9,0,1.3,1.8,1.3,6.1c0,5.4,0.2,6,1.5,4.9c0.8-0.7,1.5-2.3,1.5-3.7c0-3.8,1.8-6.3,4.6-6.3
		c1.4,0,8,1.1,14.6,2.5s12.7,2.5,13.5,2.5c3.5,0-0.2-2.9-10.7-8.5c-6.2-3.3-11.8-6.7-12.3-7.6c-0.7-1.2-0.4-2.4,1.3-4.7
		c2.8-3.8,2.2-4.8-2.1-3.3s-4.9,0.4-4.8-7.9c0.1-5.6,1.5-13.8,1.8-10.3c0.2,2.7,3.2,1.2,3.8-1.8c0.3-1.7,1.1-3.3,1.8-3.5
		c1.6-0.7,9,2.3,26.1,10.5l14.2,6.8l1.4,4.9c12.1,40.4,19.2,63.4,19.8,64.5c0.7,1,1.1,1,2.4,0c1.4-1.2,2-0.5,4.6,5.2
		c1.6,3.7,3.5,8.7,4.2,11.1c1.1,4,1,4.7-0.7,6.6c-2.4,2.7-2.2,7.2,0.9,15.4c1.4,3.6,2.9,8.2,3.5,10.1c0.9,3.5,0.8,3.7-2.5,5.7
		c-1.9,1.1-3.7,3.1-4,4.4c-0.3,1.3-0.9,2.4-1.3,2.4c-0.7,0-4-5.3-10.2-16.3c-2.4-4.3-4.5-7.4-4.7-6.9c-0.1,0.5,4,12.9,9.2,27.4
		c9,25.3,13.2,38.6,12.3,39.4c-0.2,0.2-1.1-0.4-1.9-1.3c-1.5-1.7-4-6.1-21-36.3c-3.3-5.8-11.6-18.9-18.4-29.1
		c-6.8-10.2-12.4-19.4-12.4-20.4c0-1.4,0.6-1.6,3.1-1.1l3.1,0.6l-3.2-3.8c-8-9.1-11.4-12.5-16.3-15.9c-2.9-2-9.7-7.2-15.2-11.7
		c-24.6-19.8-32.1-25.8-33.9-26.8c-1.8-1-1.8-0.8,0.2,1.8c5.6,7.8,43.7,48.4,45.4,48.4c1.1,0-1.9-3.7-12.6-15.4
		c-3.8-4.2-6.7-7.9-6.4-8.1c0.8-0.8,19.1,15,23.9,20.6c7.2,8.5,8.4,10.6,6.9,12.4c-1.7,2.1-1,3.6,9.9,20.4
		c13,20.1,31.8,53.7,30.8,54.8c-0.3,0.3-2.7-2.4-5.4-5.8c-6.6-8.7-13.3-15.9-14.8-15.9c-3.9,0-2.2,5.2,5.9,17.8
		c5.2,8,9.9,17.2,9.2,17.9c-0.2,0.3-4.3-4.6-8.9-10.9s-9.9-12.7-11.8-14.2c-2.9-2.5-3.4-2.6-4.5-1.2c-1.6,2.3-2.6,2-7.5-1.9
		c-2.4-1.9-4.7-3.5-5.1-3.5c-2.2,0,0.3,3.1,11,14.3c6.4,6.7,13.8,15.3,16.4,19.2c4.9,7.3,8.4,14.5,7,14.5c-0.4,0-3.7-2-7.2-4.5
		s-6.8-4.5-7.2-4.5c-2.1,0,0,2.8,9.2,12.5c5.5,5.8,11.7,13.1,13.7,16.3c2.1,3.1,4.4,6.1,5,6.5c1.5,1,1.8,16.4,0.3,18.7
		c-1.2,1.9-1.5,0.8-2.9-8.5c-1.3-8.9-5.5-17.3-12.7-25.3c-6.3-7-13.1-11.3-14-8.8c-0.4,0.9,1.8,3.8,5.8,7.8
		c6.3,6.3,10.7,13.6,15.8,26.8c2.1,5.3,2.1,5.4,0.1,3.5c-1.1-1.1-7-10-13.3-19.7c-20.7-32.4-33.9-48.8-39.4-48.8
		c-2.3,0-5.6-2.7-17.6-14.9c-14.1-14.3-16.4-17.1-13.5-17.1c1.2,0,8.3,4.7,13.9,9.2c3,2.3,4.2,2.1,3.2-0.6
		c-0.7-1.9-12.1-10.6-18.1-13.8c-4.1-2.2-4.1-2.2-8.3-0.3c-4,1.8-4.4,1.8-7.2,0.2c-1.7-1-3.3-1.5-3.6-1.2c-0.6,0.6-0.2,1.1,9.2,12.4
		c3.2,4,5.7,7.4,5.4,7.6c-0.2,0.3-3.8-2.4-7.9-5.8c-8.5-7.3-11.5-9.2-12.4-7.7c-1,1.6,3.2,9.1,11.6,20.4c4.3,5.8,7.7,10.6,7.4,10.6
		c-0.2,0-1.9-0.9-3.7-2c-4.3-2.6-4.8-2.5-4.8,0.8c0,3.1,1.5,5.6,7.8,12.7c2.4,2.7,5.4,7,6.7,9.5c1.2,2.5,6.5,9.1,11.6,14.7
		c10.3,11.1,16.9,18.8,16.9,19.7c0,0.3-1,0.6-2.3,0.6s-2.9,0.6-3.5,1.2c-1,1-1.2,0.6-1-2.1c0.2-1.9-0.2-3.6-0.8-3.8
		c-0.7-0.2-4.9,2.4-9.4,5.9c-11.1,8.5-12,9.1-12.5,8.7c-0.2-0.3,0.7-4.7,2.1-9.9c2.4-9.4,2.7-13.3,0.7-9.5c-0.6,1.1-3,8.3-5.3,16
		c-5.4,18.1-7.6,23-10.5,24.3c-1.3,0.6-2.6,0.8-2.8,0.4c-0.3-0.4,0.6-4.3,1.9-8.7c3-10.3,4.1-17,2.5-16.1c-0.6,0.4-1.1,1.1-1.1,1.6
		s-1.8,5.6-4,11.4c-7.1,18.3-11.9,21-7.5,4.2c2.7-10.7,2.9-11.6,1.7-11.6c-0.4,0-2.9,5.5-5.6,12.1c-4.2,10.2-9.1,18.8-10.1,17.7
		c-0.2-0.2,0.3-3.2,1.1-6.8c0.7-3.6,1.3-8.1,1.3-10c0-2.7-1-0.6-4.5,9c-5.4,15.3-10.1,25-12,25c-2,0-1.8-4.6,0.7-14.3
		c2.3-9.3,3.4-11.7,5.2-11.7c0.7,0,2.2-0.6,3.2-1.4c1.6-1.1,1.7-1.6,0.6-2.9c-1-1.3-0.9-1.9,0.8-3.6c1.6-1.6,2.7-5.5,4.5-15.3
		c5.1-28.4,4.5-29.4-3.4-5.3c-2.8,8.8-6,17.1-6.9,18.5c-1,1.4-3.8,8.9-6.3,16.6c-5,15.4-7,19.4-9.9,19.4c-2.6,0-3.1-1.5-2-5.7
		c0.5-2.1,1.2-6.3,1.5-9.3l0.6-5.5l-3.1,7.5c-3.6,8.8-5.3,11-8.6,11c-2.8,0-2.8,0.2-0.6-8.2c1.3-5.2,1.5-7,0.5-8
		c-0.9-0.9-1.2-0.8-1.6,0.3c-3.3,9.4-5,13.1-7.1,15.3c-3.6,3.9-4.5,3.3-4.5-3.5c0-7.3-1-7-5,1.4c-2.9,6.2-8.4,13.7-10,13.7
		c-0.4,0-0.2-2.4,0.6-5.3c1.6-6.2,1.8-11.7,0.4-11.7c-0.6,0-2,2.1-3,4.7c-3.8,9.1-5.2,10.1-7.3,5.1c-2.4-5.8-6.7-7.5-6.7-2.7
		c0,3.2-4.4,4.6-8.4,2.6c-3.2-1.5-3.5-1.5-5.2,0.5c-2.8,3-14.7,9.8-21.7,12.3c-3.4,1.3-6.9,2.5-7.7,2.9c-1,0.4-4-1-8-3.6l-6.3-4.3
		H204c-13.8,0-14.6-0.1-14.9-2c-0.2-1.1-1.1-2.8-1.9-3.7c-1.1-1.3-1.2-2.1-0.3-3.8c1.8-3.4,0.2-7.9-4.7-13.1
		c-5.1-5.5-9.8-7.5-19.5-8.4c-3.7-0.4-7.1-1.2-7.6-1.8c-0.5-0.7-1.3-4.1-1.7-7.6c-1-8.8-5.7-27.2-9-35.5c-2.3-5.9-2.6-7.7-2.1-12.5
		c0.4-3.1,1.3-13,2.1-22.1c0.7-9.1,1.4-16.6,1.4-16.7c0.1,0,2.5-1.5,5.5-3.2c3.1-1.7,7-5.1,9.1-7.8c4.4-5.8,9.9-17,11.6-23.6
		c0.6-2.6,1.9-5.2,2.8-5.7c1-0.5,5.6-1.2,10.3-1.6l8.5-0.6l-0.4,3.3c-1.3,11.4-2.8,17.1-6.1,23.7c-3,6.1-3.4,7.5-2.2,8.2
		c2.1,1.4,9.4,1.2,10.8-0.2c0.8-0.8,1.2-5.8,1.3-15.2c0.1-7.8,0.4-15.2,0.8-16.6c0.7-2.7,1.1-2.9,18.3-11
		c5.9-2.8,13.7-7.3,17.5-10.1l6.8-4.9l3.6,4c6.6,7.2,18.6,11.1,23.3,7.5c1.1-0.8,3.6-1.5,5.6-1.5s6-0.7,8.9-1.6l5.2-1.5l5.4,3.1
		c9.8,5.6,18.6,5.1,26.6-1.6c7-5.8,12.4-6,15.1-0.4c1,1.9,2.8,4,4.1,4.6c4.5,2.4,19.3,4.7,31.7,4.9c6.9,0.1,13.6,0.5,15,1
		c1.4,0.4,10.3,5.7,19.9,11.6c17.4,10.9,21.1,12.7,17.5,8.8c-7.5-8.3-47.1-30.9-54.1-30.9c-3.2,0-5.6-2.1-9.1-8
		c-1.1-1.9-3.4-4.8-5.1-6.4c-1.7-1.7-3.1-3.8-3.1-4.8c0-0.9-1-3.8-2.2-6.3l-2.2-4.6l2.2-10.7c2.6-12.6,2.8-15.4,0.8-14.6
		c-1.8,0.7-3-7.6-2.2-15.4c0.8-7.2-0.3-11.6-3.2-12c-1.4-0.2-2.2-1.2-2.4-2.9c-0.3-2.5-0.3-2.5-2.5-0.7c-3.7,3.1-4,6.9-0.8,9.8
		c2.6,2.4,2.8,3.4,3.6,13.3c0.4,6,1.3,13.3,2,16.3c0.9,4.2,0.9,6.5,0,9.8l-1.2,4.2l-3-1.5c-4.1-2.2-4.5-3.7-2.6-11.9
		c2.2-9.3,3.2-18.4,2-17.1c-0.5,0.5-2.4,5.6-4.2,11.2c-1.8,5.7-3.6,10.3-4.1,10.3s-1.5-1.8-2.1-4c-1.2-3.9-1.1-4.5,1.7-18.7
		c0.8-4.3-1.3-3.1-3,1.7c-2,5.7-5.7,10-8.4,10c-1.1,0-3.6,1.2-5.7,2.6c-2.8,1.9-3.6,2.1-3.1,0.9c1.3-3.6,8.6-32.2,8.6-34
		c0-4.1-2,0.6-6.9,16c-5.2,16.4-7.1,20.5-9.7,20.5c-2.1,0-1.8-2.8,2.5-18.8c4.5-16.7,5.4-21.2,4.3-21.2c-0.4,0-3.6,8.7-7,19.2
		c-5.9,18.5-7.6,22.8-8.5,21.8c-0.2-0.3,2-11.8,4.9-25.5c2.9-13.8,5.4-25.9,5.4-27c0-1.7-0.2-1.7-1.4-0.5c-0.8,0.8-3.3,9.1-5.6,18.4
		c-4.7,19.4-5.5,21.3-7.6,19.5c-2-1.6-1.8-10.1,0.6-23.8c2.3-13,2.3-13.1,1.1-13.1c-0.9,0-3.1,8.3-5.2,19.7c-0.6,3.5-1.8,7.1-2.5,8
		c-1.3,1.7-1.5,1.7-3.4-0.6c-3.1-3.7-3.4-6.6-1.5-16.7c2.2-11.6,1.4-17-2.7-19.3c-2.4-1.4-2.8-1.4-4.7,0.3c-1.4,1.3-2.1,3.1-2.1,5.8
		c0,3.3,0.5,4.2,3,5.6c3.8,2.2,4,2.7,2.8,9.5c-0.9,5.3-1.3,5.9-5,7.8c-2.2,1.1-4.2,1.8-4.5,1.5c-0.7-0.6-0.5-16.3,0.3-20.3
		c0.7-3.8-0.3-4.2-5.9-1.8c-6.3,2.6-6.3,1.6,0.1-2.8c5.7-3.8,7.4-5.7,5.4-5.7c-0.4,0-5.1,2.5-10.4,5.5c-5.3,3-10,5.5-10.6,5.5
		c-0.5,0-1.2-2.7-1.6-6.1c-0.8-8.4-2-9.5-2.7-2.6c-0.4,3.2-1.2,6.4-1.9,7c-1,1-1.1,0.4-0.7-2.5c0.7-5-0.7-9.9-3.8-12.8
		c-2.3-2.1-3.5-2.4-11.3-2.5c-13.5,0-16.5-2.8-11.2-10.5c3.1-4.6,3.2-5.4,5.5-36.5c0.6-7.4,0.5-7.8-0.9-5.5
		c-0.8,1.4-1.5,3.8-1.6,5.5v3l-2.7-2.7l-2.6-2.7l2.1-7.3c1.1-4,2.4-10.2,2.8-13.7c0.7-6.1,0.6-6.3-1.5-5.6
		c-2.7,0.8-2.7,0.2,0.5-15.2c1.4-6.8,2.4-13.2,2.2-14.1c-0.2-0.9-1.9,2.7-3.7,8c-1.8,5.4-3.7,9.8-4.2,9.8c-1.4,0-1.1-2.2,2.7-20.8
		l3.5-17.3l-1.8-7.7c-1.2-5.1-2.5-8.3-4-9.6c-3.6-3.1-2.8-5.9,3.2-12.6c7-7.9,9.7-14.8,10.3-26c0.2-4.7,0.8-9,1.4-9.7
		c0.5-0.7,3.5-1.7,6.6-2.4c3.1-0.7,7.3-2,9.2-3c4.7-2.3,12.2-10.4,15.3-16.6c2.9-5.7,5.1-7.8,7.2-7c2.1,0.9,2.7-0.7,1-2.9
		c-1.9-2.6-1.9-3.4,0.3-3.4c1,0,2.9,1.1,4.2,2.5c5.2,5.5,6.6,2.9,7.3-14c0.6-16.8,2.6-22.2,6.5-18.3c1.9,1.9,1.5-3.6-0.9-12.2
		c-1.7-6.1-1.9-9-1.4-15.3l0.7-7.8l-4.3,0.6c-12.9,1.8-17.9,2.8-19.6,4c-2.6,1.9-1,2.8,4.8,2.6c5-0.1,5-0.1,3.5,2.1
		c-2.3,3.2-2,3.8,2,3.8c3.3,0,3.7,0.3,5.8,5.2c1.3,2.9,2.6,6.8,2.9,8.7c0.8,3.8-2.1,16.1-3.8,16.1c-0.5,0-2.8-1.2-5-2.5
		c-5.7-3.6-8.3-3.3-8.7,0.7l-0.3,3.3l-3.4-4.5c-3.2-4.4-3.3-4.7-2.8-12.4c0.6-8.8,2.6-12.9,2.8-5.6c0.1,3.8,0.2,4.1,0.9,2
		c1.5-4.6,1-8.4-1.5-11.5c-1.3-1.6-2.6-2.7-2.9-2.4c-0.3,0.2-1,3.6-1.6,7.4c-2.1,14.1-2.5,14.7-7.2,9.7c-4.3-4.4-5-7.7-4.2-18.1
		c0.4-6.5,0.3-9.2-0.4-8.7c-0.6,0.3-1.4,3.2-1.8,6.4c-1.7,14.2-3.9,8.6-3.2-8.4c0.4-11.2-0.3-13.2-1.6-4.6c-0.4,2.4-1.3,6-2.1,7.9
		c-1.3,3.1-1.7,3.4-3.1,2.2c-1.3-1.1-1.5-2.5-1-7.1c0.8-7.1,2.4-11.8,3.9-11.8c3.3,0,8.6-2.3,9.1-3.8c0.6-1.8-1.4-8.6-3-10.2
		c-1.5-1.5-8.4-1.6-9.3-0.1c-0.5,0.7-1.7,1.1-2.7,0.9c-1.8-0.3-1.9-1.3-1.7-12.7c0.1-6.8,0.1-12.2-0.1-12c-0.2,0.2-1.1,4.9-2,10.3
		c-0.9,5.4-2.3,11.1-3.1,12.5l-1.3,2.6l-1.2-3c-0.8-2.1-1-7.2-0.7-16.5c0.5-11.8,1.1-17.4,3.1-32.8c0.3-1.7,0.1-3.2-0.3-3.2
		c-0.4,0-2,6.2-3.4,13.9c-3.9,20.1-6.5,25.3-10.6,21.2c-3.2-3.2-3.5-6.6-1.3-14.9c1.1-4.3,2.3-10.2,2.7-13.2c0.9-6.5,2-9,4.1-9
		c1.2,0,1.4,0.7,1,2.7c-0.7,3.5-2.6,16.3-2.6,18.2c0,3.4,1.1-0.2,3-9.5c5.6-26.7,9.3-53.6,4.9-34.9c-3.3,13.8-4.1,16.6-5.3,16.2
		c-2.5-0.8-1.3-29.1,1.5-36.5c0.9-2.4,1-2.4,3.1-0.6c1.1,1.1,2.7,3.4,3.5,5.2c2.7,6.3,17.3,32.3,20.2,36c1.7,2,4.1,6.4,5.5,9.7
		c2.7,6.7,5,7.9,5.2,2.7c0.1-1.8,1-4.2,2.2-5.5c2.6-2.8,3.8-7.3,2.3-9.1c-0.8-0.9-2.5-1.2-5.5-0.9c-3.3,0.4-4.4,0.2-4.9-1.1
		c-0.6-1.6,0.2-2,3.7-1.6c1.8,0.2,1.8,0-0.2-2.7c-3.3-4.6-13.7-16-25-27.6c-7.5-7.8-10.7-10.5-11.3-9.5c-0.4,0.7-1.9,6.9-3.3,13.6
		c-3.1,14.5-3.8,16.2-7.1,16.2c-3.2,0-3.2-0.6,0.5-21c1.7-9.1,3.3-20.8,3.5-26l0.5-9.5l-1.5,6.4c-1.6,7.2-2.2,8.2-3.5,6.1
		c-1.2-1.9-1.2-7.9-0.1-15c1.3-8.2,2.4-23.6,1.6-22.8c-0.3,0.3-1.7,6.1-3,12.7c-2.7,13.8-3.1,14.7-5.1,13c-2.1-1.8-1.8-4.4,3.7-27.6
		c4.7-20,5.4-26.2,2.8-23.6c-0.6,0.6-1.3,3.2-1.7,5.8c-0.9,6.4-2.7,6.8-5.2,1.2c-1.1-2.5-2.6-4.7-3.3-5c-0.9-0.3-0.8-2.3,0.6-8.9
		c0.9-4.7,1.7-10.4,1.7-12.7c0-3.4,0.4-4.3,2.8-5.5c5-2.6,6.4-5.1,6.9-12.3c0.9-11.5-3.3-17.7-8.2-12.3c-2.1,2.3-7.5,2.4-8.3,0.2
		c-0.2-0.7,1.6-3.3,4.1-5.7c3.9-4,4.9-4.5,8.9-4.5c10.6,0,14.6-10.8,7.9-21.2c-3.4-5.4-4.5-7.8-3.8-8.5c0.4-0.3,3-0.1,5.8,0.5
		c13.5,3.1,24.1,0.1,29.8-8.4c5.2-7.9,5.6-13.5,0.5-8.1c-3.1,3.4-6.4,3.4-10.4,0c-2.6-2.2-3.5-2.4-4.9-1.5c-4.9,3.6-6,3.7-11.7,0.9
		c-6.5-3.2-7.4-3.3-12.4-0.7c-4.9,2.5-5,2.5-5-0.5c0-5.7-5.7-3.9-8.9,2.8c-0.2,0.5-0.7,1.2-1.2,2l0,0l0,0
		c-3.2,4.5-10.8,13.1-17.3,19.5l4.7,7.5c3-2,6.6-4.8,9.5-7.6c9.5-8.8,11.8-9.6,10.7-4.1c-0.3,2-1.7,7.3-3,11.8
		c-5.1,17.4-6.9,19.6-16.2,19.6c-3.2,0-5.3-0.3-6.8-1.2l-17.3,4.5c-0.3,0.5-1,0.8-2,0.8c-1,0-1.2,0.3-0.7,0.9
		c1.2,1.2,20.1,5.1,24.7,5.1c1.8,0,4.9,0.5,7,1c4.8,1.4,5.8,4.4,5.8,18.4l-0.1,11.1l-2.7-3.3c-1.5-1.8-3-3.2-3.4-3.2
		c-1.4,0-0.8,3.7,0.7,5c1.7,1.4,2.1,7,0.5,7c-1.8,0-19.8-6-25.4-8.5c-9.4-4.1-16.9-4.5-12.1-0.5c0.8,0.7,7.7,4.5,15.2,8.4
		c12,6.3,14,7.7,15.6,10.9c0.9,2,2.3,3.7,3.1,3.7s2.3,0.8,3.5,1.7c4.6,3.7,4.8,22,0.5,30.5c-1.3,2.4-2.1,2.8-5.9,2.8
		c-6.6,0-6,3.8,0.8,5.4c3.6,0.9,2.6,2.4-2.1,3.1c-14.8,2.3-31.5,7-30.9,8.8c0.2,0.8,2.3,1.1,5.8,1c20.4-0.9,22.5-0.8,25.2,1
		c1.5,0.9,2.7,2.6,2.7,3.7c0,2.4,1.3,2.6,3,0.4c2-2.3,4.7-3.5,6.4-2.8c2.3,0.9,3.6,6.8,3.6,16.4c0,8.9-0.8,11-4.2,11
		c-2.4,0-2.3,2.7,0.2,6.8c1.1,1.8,2,3.4,2,3.6c0,0.2-8.4,0.6-18.7,0.8c-19.3,0.6-22.3,1-22.3,3.4c0,1.1,1.7,1.4,6.9,1.4
		c5.8,0,7.2,0.3,8.4,2c1.1,1.6,2.5,1.9,9.3,1.9c10.4,0,13.4,1.1,13.4,5.1c0,2.7,0.3,3,3.1,3c2.8,0,3.1,0.3,2.7,2.5
		c-0.8,3.9,1,4.1,4.6,0.6c1.8-1.7,3.5-2.8,3.9-2.5c1.1,1.1,0.8,21.5-0.3,25.6c-1.4,5-3.4,6.8-7.6,6.8c-2.9,0-3.3,0.3-3.1,2.2
		c0.2,2.2-0.1,2.3-11.8,2.8c-9.7,0.4-12,0.8-12,2c0,1.1,2.2,1.7,8.5,2.6c11.7,1.6,19.8,3.3,20.6,4.5c0.3,0.5,0,1.7-0.7,2.5
		c-2.1,2.6,0.3,3.8,4.5,2.3c3.3-1.2,3.7-1.1,6.1,1.1c1.3,1.3,2.8,3.3,3.1,4.4c0.4,1.2,1.5,2.9,2.5,3.9c2.8,2.6,2.4,4-0.8,3.3
		c-1.6-0.4-4.5-0.9-6.7-1.3c-5.7-0.9-4.3,1.6,2.8,5l5.8,2.8l-0.6,5.1c-0.6,4.3-0.5,5,0.8,4.5c1.1-0.5,1.6,0,1.6,1.3
		c0,1-2.5,3.9-5.6,6.6c-5,4.3-5.4,4.9-3.9,6c1.5,1.1,1.2,1.4-2.1,1.9c-11.2,1.9-25.6,8.5-18.6,8.5c0.9,0,7.9-1,15.4-2.2
		c7.6-1.2,14.1-1.9,14.4-1.5c0.4,0.4-0.2,2.7-1.4,5.1c-3.7,7.3-2.8,8.3,2.8,3.6c5.8-5,9.3-3.8,10.5,3.5c1.1,6.9,1.4,7.3,3.4,4.6
		l1.8-2.4l0.7,4.9c1,7.1,1.5,8.4,3.4,8.4c1.2,0,1,0.6-1,2.7c-1.9,2-2.6,3.8-2.5,6.3c0.1,2.6-1.3,6.1-5,12.5c-6,10.6-7.1,13.5-5,13.5
		c0.8,0,2.7-2,4.1-4.5c1.5-2.4,5.7-7.5,9.3-11.2l6.7-6.8l0.4,3.2c0.2,1.8,0.7,3.3,1.1,3.3c1,0,3.1-4.6,3.1-7c0-1,0.4-2.1,0.9-2.5
		c1.5-0.9,8.3,7.9,12.1,15.7l3.5,7.2l-4,4.1c-2.2,2.3-6.2,6.8-8.9,10c-4.4,5.1-15.4,13.5-17.7,13.5c-0.5,0-2.2-2.7-3.9-6
		c-3.1-6.2-5.8-8.1-4.6-3.4c0.4,1.5,1,4,1.3,5.7l0.6,3l-5.9-3.3c-3.2-1.9-8.7-5.1-12.1-7.1c-8-4.9-14.4-8.1-14.9-7.6
		c-1.2,1.2,1.8,4.4,11.9,12.5c14,11.1,14.6,11.8,12.2,13.6c-1.9,1.4-1.3,3.6,1.1,3.6c1.9,0,1.8,1.3-0.6,4.3
		c-3.5,4.4-2.2,6.2,2.4,3.1c3.2-2,3.9-0.5,2.1,4.6c-2.1,5.9-8.6,18-9.7,18c-0.5,0-2.4-1.1-4.2-2.5c-3-2.3-6.6-3.3-6.6-2
		c0,0.3,0.7,1.7,1.6,3c1.5,2.3,1.5,2.4-0.8,2.9c-1.2,0.3-8.1,0.7-15.3,0.8c-13.5,0.3-16.4,1-14.5,3.3c1.1,1.3,4.9,2.5,17.4,5.1
		c6.5,1.4,8.6,2.3,11.3,5c1.8,1.8,3.3,4.3,3.3,5.6c0,2.1,0.1,2.1,3-0.7l2.9-2.8l1.1,2.7c0.5,1.5,1,3.8,1,5.2c0,4-3.1,17.6-4.7,20.7
		l-1.5,2.9l-2.2-2.1c-2.5-2.4-3.6-1.9-3.6,1.6c0,1.3-0.5,2.3-1.1,2.3c-0.6,0-6.1-2.7-12.3-6c-6.2-3.3-11.6-6-12-6
		c-0.5,0,3.8,3.8,9.5,8.4c5.7,4.6,11.2,9.3,12.3,10.4c1.8,2,1.8,2.2-0.4,5.3l-2.3,3.1l3.4-0.7c1.9-0.3,4.1-0.9,5.1-1.1
		c1.4-0.4,1.8,0.6,2.3,6.2c0.8,7.3-0.1,22.2-1.6,26.1c-0.9,2.4-1.2,2.5-6.2,1.9l-5.2-0.7l3.9,3.4c2.4,2,3.5,3.6,2.9,4
		c-2.7,1.7-19.4,7.7-21.4,7.7c-1.9,0-2,0.2-0.8,1.6c1.2,1.4,2.9,1.5,12.7,0.9c11.2-0.6,11.3-0.6,10.3,1.4c-1.5,2.8,0.4,3.7,3.5,1.6
		c4.8-3.1,6.7,1,8.2,18c1,10.8,0.3,14.5-2.6,14.5c-2.5,0-6.5,3.9-5.8,5.6c0.3,0.8-0.1,1.4-0.9,1.4c-2.3,0-5.1-5.4-9.1-17.5
		c-4.5-13.4-8.2-21.5-9.9-21.5c-1.6,0-2.5,2.2-2,4.7c3,14.1,7.5,28.1,10.6,32.5c2.4,3.3,2.4,3.7-0.3,6.5c-1.2,1.3-2,2.5-1.7,2.7
		c0.2,0.2,4.5-0.7,9.4-2c9.9-2.6,13.2-3,10.3-1.3c-2.5,1.4-2.3,2.8,2.2,14.2c6.6,16.9,15.6,30.5,21.7,32.8c2.8,1.1,2.9,2.3,0.3,4.9
		c-2.1,2.1-5,2.7-5,1.1c0-1.9-14-21.9-17.5-25c-4.7-4.1-6.5-4-3.1,0.1c8.8,10.9,16.6,24.1,16.6,28.2c0,3.1-4.6,8.7-6.5,7.9
		c-0.8-0.3-4.4-5.4-8-11.3c-12.2-20.2-24.3-45.7-31.2-65.5c-1.9-5.5-4.6-12.3-6-15c-3.1-6.2-8.7-20.1-9.7-23.9
		c-0.5-1.9-0.3-2.7,0.6-2.5c2.8,0.3,3.6-0.2,4.7-3.2c1.6-4.7,1.3-9.4-0.7-11.9c-2.4-2.9-3.9-2-5.2,3c-1.1,4.1-1.6,4.5-3.6,3.2
		s-3.3-4.7-4.4-11.8c-1.8-11.2-3.1-16.4-4.2-16.4c-2.5,0,5.1,42.8,9.8,55.5c0.7,2,0.7,2-1.4,0.2c-2.7-2.5-16.6-40.9-19.8-55.2
		c-1.1-5-4.4-7.7-4.4-3.5c0,2.6,8.6,30.9,17.1,56.3c8.3,25.1,13.4,37.6,27.8,69.2c6,13.2,10.7,24.2,10.4,24.5
		c-0.7,0.8-4.8-4.6-11-14.5c-8.8-14.1-13.7-23.8-19.8-39.5c-8.2-20.8-27.1-78.1-29-87.5c-1.6-8.4-3.7-11.4-6.2-9.4
		c-0.7,0.6-1.3,1.8-1.3,2.6c0,0.9-0.6,1.3-1.5,0.9c-1-0.4-1.5,0.1-1.5,1.5c0,2.6,4.8,21.7,6.1,24.1c1.4,2.6,2.9,2.2,2.9-0.7
		c0-2.7,1.7-3.4,2.6-1c0.3,0.8-0.6,2.9-2,4.6c-4.7,5.6-7.6,15.9-4.4,15.9c0.7,0,2.5,1.2,4,2.7c2.9,2.8,2.9,2.8,6,1
		c1.7-1,3.5-1.4,3.9-1c1.1,1.2,4.9,13,4.9,15.4c0,2.1-1.5,3.7-5.2,5.9c-1.5,0.9-2.3-0.1-5.9-7.2c-2.3-4.6-4.4-7.8-4.6-7.2
		c-0.7,2.1,13,34.2,27.6,64.8c3.9,8.2,6.9,15.1,6.7,15.4c-0.3,0.2-1.3-1.2-2.2-3.2c-1-2-2.3-3.6-3-3.6c-1.3,0-10.2-8.9-11.8-11.8
		c-0.5-0.9-1.3-3.7-1.8-6.1c-0.4-2.5-4.9-13.4-9.8-24.3c-14.5-31.8-16.5-37.7-15.6-44.8c0.5-3.9,0.3-5-1.5-6.6
		c-3-2.7-4.6-6.1-9.5-20.3c-5-14.2-6.4-16.5-6.4-10.4c0,2.2-1.1,7-2.4,10.5c-2.4,6.2-2.4,6.8-1.1,12.4c1.4,5.9,8,25.5,9.6,28.5
		c2.6,4.9,4.7,11.9,3.8,12.4c-2.4,1.5-13.7-14.4-15.8-22.3c-0.7-2.3-1.6-4.2-2.1-4.2c-3.1,0-1.6,6.4,3.4,14.5
		c1.7,2.7,3.8,7.9,4.7,11.5c1.7,7,2.2,7.5,14.3,15.3c3.6,2.3,5.9,4.9,8.3,9.2c3.8,6.8,6.6,15.4,6.1,18.7c-0.3,2.1-0.7,1.9-5.2-2.7
		c-16.4-16.6-38.7-43.3-43.9-52.5c-3-5.1-3.2-5.3-3.5-2.8c-0.2,1.5,0.3,4,1.2,5.5c2.2,4.3,13,17.5,32.6,39.8
		c27.2,31,40,46.7,40,49.2c0,0.6,1.5,3,3.3,5.4c6.6,8.6,30.7,50.5,30.7,53.3c0,3.9-9.4-8.5-23.8-31.5
		c-16.8-26.8-40.9-60.6-47.5-66.8c-2.2-2-2.7-2.1-3.2-0.9c-1.2,3.1,6.8,16.5,29.9,49.8c5.9,8.5,14.3,21.4,18.7,28.6
		c4.8,8,9.2,14.2,11.4,15.8c2.9,2.3,9.4,12.3,8.3,13c-0.2,0.1-2,0.7-4.1,1.2c-4.7,1.1-4.9,2.7-0.5,3.5c7.2,1.2,7.3,3.1,0.8,16.4
		c-4,8.4-10.3,15-17.7,18.9l-3.2,1.6l-1.7-3.5c-1.5-3.3-5.3-7-6.2-6.1c-0.2,0.2,0.4,2.5,1.2,5c0.9,2.6,1.6,4.9,1.6,5.1
		c0,0.6-12.6-3.1-23.7-6.9c-10.2-3.6-15.3-4.5-15.3-2.6c0,0.5,5.5,3.7,12.1,7.1c6.7,3.3,14.4,7.6,17.1,9.5c2.8,1.9,6.1,3.4,7.4,3.4
		c1.6,0,2.7,0.8,3.3,2.2c0.8,2.3,2.2,13.8,1.7,13.8c-0.2,0-5.5-2.7-11.9-6c-11.3-5.8-15.9-7.1-17.2-5c-1.1,1.7,1.4,4,12,10.8
		c5.5,3.5,11,7.3,12.3,8.5c2.7,2.5,2.8,5.8,0.2,8.2c-1.8,1.7-2.5,1.7-7.5,0.5c-6.6-1.6-8-0.7-4.2,2.5c1.5,1.3,2.7,2.6,2.7,2.9
		c0,0.3-1.4,0.6-3.2,0.8c-3.3,0.3-5.2,2.8-2.1,2.8c1,0,2.4,0.4,3.2,0.9c1.8,1.2,0.9,2.5-10.4,17.1c-14.3,18.2-13.7,19.5,2.4,5
		c12.1-10.8,14.6-12.6,15.6-11c0.3,0.5,1.6,1,2.9,1c2.6,0,5.6,5.7,8.1,15.5c2.5,10,1.7,13.5-3.1,13.5c-2.8,0-4,1.8-2.5,3.3
		c0.9,0.9-2.3,4.5-13.5,15.3c-8.2,7.7-14.3,14.3-13.8,14.7c0.5,0.3,4.7-2.3,9.3-5.8c4.5-3.5,10.3-7.1,12.9-8c2.6-1,7-2.8,9.7-4.1
		c6.1-2.9,6.5-2.9,6.5-0.4c0,2.7,1.2,2.5,4.9-0.5c2.9-2.5,3.1-2.6,6.3-0.9c3.7,1.8,11.3,7.8,14.1,10.9c3.3,3.8,4.9,7.7,4.3,10.9
		c-0.3,1.7-0.9,5.6-1.5,8.6c-0.5,3-2.3,8.9-4,13c-4.4,11.2-4.1,11.1,10.2-5.1l4.8-5.4l1.5,3.3c1.8,4.3,3.4,3.2,3.4-2.4
		c0-4.7,0.9-5.4,3.5-2.8c1,1.1,4.5,1.8,10.9,2.4c12.6,1.1,17.6,3.9,17.6,10c0,1.7,0.5,2,2.7,1.8c2.4-0.3,3.1,0.5,8.2,10.1
		c8.5,15.9,9.6,14.8,4.5-4.4c-2.5-9.4-3-14.5-1.5-14.5c0.5,0,2.3,1.7,4.1,3.7l3.2,3.6l-0.7-4.4c-0.3-2.4-0.9-5.2-1.1-6.2
		c-0.5-1.6,0.7-1.7,15.3-1.7l15.8,0.1l3.4,3l3.3,3.1L279,1164c-1.8,8.8-2.9,16.4-2.5,17c0.4,0.7,1.4,0.3,2.8-1l2.2-2.1l11.7,7.7
		c6.5,4.2,11.6,7.7,11.5,7.9c-0.2,0.1-3.6-0.4-7.7-1.2c-13-2.5-32.2-4.4-44.2-4.4c-9.8,0-12,0.3-13.9,1.8c-3,2.4-2.1,5,3,9.1
		c4.5,3.6,4.4,5.1-0.4,5.1c-6.8,0-14.6,4.3-14.6,8c0,1.8,3.6,7,4.9,7c0.4,0,1.5-1.6,2.4-3.5c1-2.2,2.6-3.7,4.3-4.1
		c4.5-1.1,22.2,0.3,38.7,3.2c12.6,2.2,16,2.5,17,1.5c1.9-1.9-2.3-4.7-10.6-7.1c-21.3-6.2-35.7-11.6-35.7-13.3c0-1.2,22.9-0.3,33,1.3
		c17.1,2.7,48.4,10.9,70.9,18.5c13.5,4.5,16.1,4.7,16.1,0.9c0-2.1-3.1-3.7-25.9-13.9c-32.4-14.4-43.4-20.5-37.3-20.5
		c5.3,0,42.7,10.6,59.2,16.7c5.2,2,23.7,9.6,41,17.1c41.1,17.6,47,19.6,47,15.7c0-2.1-4.2-4.6-40.2-23.2
		c-17.8-9.1-33.6-17.5-35.3-18.6c-2.7-1.7-2.8-1.8-0.5-1.1c4,1.1,33,14.4,51.8,23.8c19.2,9.5,24.7,11.5,26.4,9.8
		c0.7-0.7-1.3-2.8-7.3-7.2c-12.2-8.9-47.5-32.3-54.5-36l-5.9-3.1l5.5,0.5c3,0.3,11.1,2.2,17.9,4.1c14.6,4.3,18.5,4.3,18.9,0.2
		c0.4-3.5,1.4-3.4,11.5,0.5c4.5,1.7,9.6,3.3,11.4,3.5c1.7,0.2,5,1,7.4,1.8c2.3,0.8,4.5,1.3,4.8,0.9c0.7-0.7-2.2-3.2-12.4-10.4
		c-4.3-3-9.4-7-11.4-8.8l-3.6-3.4l6.4,0.5c4.4,0.4,7.3,1.2,9.4,2.7c2.3,1.8,3.1,2,3.7,0.9c0.5-0.7,0.4-2.1-0.1-3.1
		c-1.2-2.3-12.4-7.5-18-8.4c-5.5-0.8-9.1-3-14.8-8.7l-4.3-4.5l17.8,0.3c16.1,0.3,27.3,1.6,33.5,4c1,0.4,2,0.2,2.3-0.4
		c0.9-1.4-5-5.2-20.2-13.1c-6.9-3.6-12.8-7.1-13-7.8c-0.5-1.7,5.7-1.6,13.3,0.3c7.7,1.8,7.5,1.8,7.5-0.4c0-1.1-2.2-3.8-5-6.2
		c-2.8-2.3-4.8-4.4-4.6-4.6c0.2-0.2,2,0.3,4,1.1c5.3,2.2,4.9-0.6-0.6-4.1c-5.6-3.5-9.8-7.4-9.8-8.9c0-0.7-1.8-3.5-4.1-6.4
		c-4.7-5.9-3.3-5.5,6.3,1.8c9,6.9,12.8,8.7,12.8,6.1c0-0.6-6.6-7.6-14.6-15.5c-8.1-8-14.4-14.7-14.1-15.1c0.4-0.3,3.7,1.5,7.4,4.1
		c3.7,2.5,7.4,4.6,8.1,4.6c3.7,0-0.6-7.1-13.5-22.1c-4-4.7-7.3-8.9-7.3-9.2c0-0.4,2.1,0.9,4.6,2.8c5,3.8,6.6,4.2,8.3,2.1
		c1.9-2.2-0.9-6.6-10.3-16.5c-14.7-15.5-33.4-37.7-32.4-38.6c0.3-0.3,7.3,6,15.6,14c8.3,8,15.6,14.5,16.2,14.5
		c1.6,0,1.2-3.1-0.7-5.2c-1.5-1.7-1.5-1.8,0.8-1.8c1.4,0,3.1-0.6,3.8-1.3c1-1,2-0.3,5.2,3.2c2.2,2.4,6,7.5,8.4,11.2
		c4.6,6.8,29.6,56.1,32.1,63.3c2.3,6.3,1.7,10.7-3.6,26.2c-2.8,8.1-4.8,15-4.5,15.3c1.1,1.1,4-1.7,6.2-6c2.7-5.3,2.8-4.4,0.6,9.3
		c-0.9,5.9-1.3,11.1-0.9,11.5c1.5,1.5,6.2-2.4,9-7.7l2.9-5.4l1.1,3.8c2.9,10.4,10.6,4.1,10.6-8.6c0-6.2,1.1-5.4,2.9,2.2
		c1.8,7.5,2.8,9,5.6,9c2.2,0,3,0.6,6.3,4.5c0.8,0.9,2.1,1.5,3,1.3c2.4-0.5,2.6-11.7,0.7-43.9c-0.8-14.6-1.5-28.1-1.4-30l0.1-3.4
		l0.8,3c0.5,1.6,1.5,14.5,2.4,28.5c2,30.9,3.4,46.5,4.7,50.5c0.5,1.6,2.4,4.2,4.3,5.7c2.6,2.1,3.6,3.7,3.8,6.5
		c0.5,5.8,2.5,5.2,4.3-1.4c2.5-9,3.5-11.4,7.6-17.8c2-3.3,6.3-13.2,9.4-22c9-25.5,8.3-24.1,12.3-25.9c2.1-0.8,7.4-2.4,12-3.6
		c14.5-3.5,18.6-6.5,12-8.9c-1.8-0.7-5.5-2.2-8.3-3.3c-9.9-4-19.9-6.9-25.9-7.4c-3.3-0.3-7.7-1.2-9.6-2c-1.9-0.7-8.8-2.5-15.3-3.8
		c-6.6-1.4-12.5-3-13.3-3.7c-0.8-0.6-1.4-2.6-1.4-4.3c0-3.5-1.5-5.6-4.1-5.6c-0.9,0-3.3-1.2-5.4-2.6c-2.5-1.6-4.1-2.2-4.8-1.5
		c-1.4,1.4-2.6,8.6-2.7,15.5c0,8.3-2.1,6-2.7-3.1c-0.4-6-0.2-7.4,2.4-12.3c1.5-3,7.1-10.8,12.3-17.3c8.5-10.4,9.8-11.7,12.6-11.7
		c1.7,0,4.3-0.9,5.7-2c4.3-3.4,18.5-9.7,29.7-13.2c9.4-3,11-3.8,15.6-8.5c9.3-9.3,12-10,44.4-11.4c23.3-0.9,27-0.9,43,1
		c20.7,2.4,36.2,6.1,65.6,15.9c33.2,11.1,54.2,20.1,59.2,25.5l2.1,2.2l-14.8,17.7c-8.2,9.8-16.8,20.8-19.2,24.5
		c-2.4,3.8-5.3,8-6.5,9.5s-2.5,4.8-2.9,7.5c-0.7,5-5.1,21.2-6,22.1c-0.3,0.3-0.5-0.1-0.5-0.9c0-0.8-0.4-5-0.9-9.4s-1.4-18.8-2-32
		c-1.8-38.4-2.2-43.4-3.3-40.5c-0.7,1.6-0.8,15-0.5,36.2c0.4,18.6,0.3,33.8-0.1,33.8c-1.3,0-3.8-5.2-8.7-18
		c-9-23.9-19.4-44.3-26.6-52.3c-6.1-6.8-7.5-5.4-1.6,1.5c2.4,2.9,5.8,7.5,7.5,10.3c4.5,7.5,14.4,31.2,23.8,57
		c1.9,5.3-2.2-1.5-11-18.2c-5.2-10.1-12.1-22.2-15.3-27c-5.9-9-15.8-20.2-16.9-19.1c-0.3,0.4,2.1,4,5.4,8.2
		c12.4,15.5,29.5,47.3,30.9,57.1c0.9,7.1-1,5.7-9.2-6.6c-12.5-18.8-21.9-29.5-29.4-33.4c-5.8-2.9-5.6-1,0.2,3.4
		c5.9,4.3,15.4,15.1,21.9,24.9c2.1,3.1,3.5,5.8,3.3,6.1c-0.3,0.2-9.2-8.1-19.8-18.5c-18.6-18.4-27.3-26.2-32.9-29.7
		c-2.9-1.8-7.8-2.3-7.8-0.7c0,1,1.3,1.9,10.5,8c14.9,9.6,52.5,47.7,52.5,53c0,3.4-6,3.4-39.9,0.1c-42.4-4-54.1-4.7-54.1-3.2
		c0,1.4-1.7,1.2,14.5,2c7.7,0.4,14.6,1,15.3,1.5c1.4,0.9,2.2-0.2-15.4,20.8c-13.6,16.1-31.2,38.6-33.2,42.2
		c-1.6,3.1-0.6,5.6,2.3,5.6c3.3,0,5.2-2,15.8-16.1c14.2-19.1,36.6-45.7,39.1-46.3c2.5-0.7,28.2,3.1,30.9,4.6c2.9,1.5,1.8,5-9.7,28.8
		c-10.2,21.1-17.2,38.1-17.8,43c-0.5,3.8,3.4,3.9,6,0.3c2.9-4.2,7.5-13.6,11.7-24.3c6.8-17.2,15.8-33.1,22.4-39.4
		c3.6-3.5,3.9-6.1,1-9.2l-2.1-2.2l4.3-0.6c2.4-0.3,6.7-0.8,9.6-1.1l5.2-0.6l2.5,4.3c4.9,8.6,9.6,21.5,9.6,26.6
		c0,5.8-3.2,17.1-5.8,20.1c-0.9,1.1-5.3,3.4-9.7,5.1c-13.1,5.1-41.3,21-48.4,27.2c-4.6,4-8.2,3.6-23.5-3.1
		c-6.6-2.9-14.1-5.6-16.8-6.1c-12.2-2.3-51.5,5-60.9,11.3c-1.9,1.2-4.9,4.5-6.6,7.2l-3.2,4.9l2.7,1.8c8.8,5.8,52.2,15.8,68.7,15.8
		c5.3,0,9,0.7,13.9,2.5c3.7,1.4,7.3,2.5,8,2.5c0.8,0,3.7-1.6,6.6-3.6l5.1-3.5l5.3,2.2c4,1.6,5.8,1.9,7.2,1.1
		c1.5-0.8,2.8-0.4,6.5,2.4c4.6,3.4,8,4.3,11,3c1-0.4,3,0.5,5.4,2.4c2.5,2,4.8,3,6.4,2.8c4.3-0.5,3.3-6-4.6-26.3
		c-8-20.4-9.2-24.5-7-22.6c2.5,2,12.5,23.3,13.6,29c0.6,3,2.9,9.2,5.1,13.7c2.9,6.4,4.3,8.4,5.9,8.4c4.4,0,3.6-5.5-3.8-25.8
		c-2.4-6.8-3.6-11.2-2.9-11c2,0.7,6.3,10.1,11.4,24.8c8.4,24.3,8.8,24.8,14,21.4c2.3-1.6,2.5-1.5,4.9,1c2.6,2.8,5.6,3.4,7.4,1.3
		c1.2-1.6,0.7-3.6-5.8-21.4c-2.2-6.2-3.7-11.3-3.2-11.3c0.9,0,5.8,10.4,9.4,20c5.3,14.2,9.6,20.4,11.8,16.9c1-1.7,0.6-3.4-3.8-16.8
		c-2.3-6.9-3.1-10.7-2.5-11.3c1.7-1.7,5.8,3.7,9.2,12c5.8,14.1,8.9,20.2,10.3,20.2c0.8,0,4,2.3,7.3,5.2c6.7,5.8,15.5,10.3,23.6,12
		c10.1,2.1,11.7-1,2-3.8c-11-3.2-23.2-9.7-23.2-12.4c0-0.5,2.2-2.1,4.8-3.4c2.7-1.4,7.3-4.6,10.3-7.1s8-6,11.3-7.8
		c3.3-1.7,8.8-6.1,12.4-9.9l6.6-6.8h20.4c29.3,0,41.2,3.1,55.7,14.4c11.8,9.1,11.9,9.2,10.6,6.9c-1.5-3-10.3-10.6-17.4-15.2
		c-3.4-2.2-8-5.2-10.1-6.7l-3.9-2.6l0.7-12.1c0.3-6.6,0.6-21.2,0.6-32.4c0-16.9,0.2-20.3,1.4-20.3c0.8,0,2.2,0.7,3.1,1.6
		c1.4,1.4,1.6,4.8,1.3,27.9c-0.3,27.7-0.1,29.5,4.3,29.5c2.6,0,2.8-1.5,3.2-26c0.4-20.1,0.9-25,2.6-25c0.4,0,2.2,1.3,4.1,2.9
		l3.5,2.9l0.5,19.8c0.4,17.5,0.7,19.9,2.2,20.2c2.1,0.4,3.4-5.8,4.7-23.2c0.6-7,1.2-13,1.4-13.2c0.2-0.3,2.2,0.1,4.3,0.8l3.9,1.3
		l-0.3,15c-0.3,15.1,0.3,18.3,3.1,17.2c2.4-0.9,3.7-7.1,4.4-20.8c0.7-15.8-0.3-19.9-5.1-19.9c-3.4,0-5.1-1-13.4-7.7
		c-2.9-2.4-5.7-4.3-6.3-4.3c-1.9,0-13-8.2-19.7-14.4c-3.7-3.5-8-7-9.7-7.9c-4.2-2.2-20.8-15.6-28.4-23c-8-7.8-10.7-13.4-12-25.2
		c-0.6-5-1.5-29.2-2.1-53.8l-1.1-44.8l5.5-6c5.5-6,7.7-11.1,3.8-9c-1.9,1-11.3,10.6-17.1,17.3c-1.7,2-5.4,5.4-8.2,7.5
		c-3,2.3-5.7,5.4-6.8,7.8c-2.1,4.8-6.8,10.5-8.6,10.5c-4,0-1.9-27.6,3.5-46.5c2.3-8.2,2.2-7.5,1-7.5c-1.3,0-4.1,5.9-7.6,15.9
		c-2.9,8.5-3.4,8.7-4.8,1.8c-0.4-1.5-1.2-2.7-1.8-2.7c-0.8,0-0.9,5.3-0.5,19.9l0.7,19.9l-8.1-7.6c-4.5-4.2-9-8.3-10-9
		c-1.7-1.2-1.9-1.1-1.9,0.6c0,1.1,0.7,2.5,1.5,3.2c0.8,0.7,1.5,1.6,1.5,2.1s-3.6-1.9-8-5.4c-7.4-5.9-16.6-11.4-17.5-10.5
		c-0.8,0.8,1.4,2.8,13,11.6c6.6,4.9,13.6,10.7,15.5,12.7c4.3,4.6,5,4.8-19.5-4.8c-44.7-17.4-77.2-25.7-111-28.6l-11.1-0.9l-7.4-7.7
		c-13.1-13.5-17.4-15.1-6.9-2.6c3.4,4,5.9,7.4,5.8,7.6c-0.4,0.4-16.3,4.5-17.4,4.5c-0.3,0-0.3-0.9,0-2c0.4-1.2-0.4-4.1-1.9-7.4
		c-1.4-3-2.6-7.2-2.6-9.3c0.1-3.6,0.2-3.4,3.4,4.2c3.2,7.5,5.7,10,6.4,6.4c0.2-0.9-1.5-6.3-3.7-12c-2.1-5.8-4.2-12.1-4.6-14.1
		l-0.7-3.6l3.9,1.3c2.1,0.8,4.9,1.4,6.1,1.5c1.3,0,3.6,0.7,5.2,1.7c2.6,1.5,3.1,1.5,6.8,0c3.6-1.5,4.1-1.5,5.3-0.1
		c0.8,0.9,1.6,5.5,1.9,10.4s0.8,9.1,1.2,9.5s2.6-1.9,5-5c8.5-11.3,8.1-11,14-11.2c2.9-0.1,9.3-0.5,14.2-0.8
		c14.4-1.1,19.6,1.3,19.6,9.1c0,4.7,1.2,5.6,3.2,2.4c0.7-1.1,1.8-2,2.5-2c1.1,0,4,8.1,7.2,20.5c2.5,9.4,3.3,7.2,2.8-8.2
		c-0.3-8.4-0.2-15.3,0.1-15.3c0.4,0,2.6,1.9,4.9,4.2c5,4.9,5.3,4.1,2.8-5.7c-0.9-3.2-1.4-6.4-1.1-7.1c0.5-1.4,9.9-3.1,22.1-3.9
		c5-0.3,10.1-0.8,11.4-1.1c2.3-0.5,2.3-0.3,1.7,3.5c-0.5,3.1-0.3,4.1,0.7,4.1s1.3,0.8,1,2.4c-0.6,3,1.3,4.3,3.5,2.4
		c3.5-3,4.2-3,5.3,0.1c1.3,3.7,2.6,4,3.8,0.9c0.8-2.2,0.9-2.2,2.5,0.9c0.9,1.8,2.5,7.3,3.7,12.2c1.1,4.9,2.7,9.7,3.4,10.7
		c1.3,1.7,1.4,1.5,1.5-2.8c0-2.5-0.7-8.2-1.5-12.5c-1.9-10-2-21.3-0.2-21.3c0.7,0,2.7,1.6,4.4,3.5c5.3,6,7.4,3.7,2.8-3.1
		c-1.4-2-2.5-4.3-2.5-5c0-3.3,17.2-12.5,27.2-14.6c7.9-1.6,9.2-0.5,8.3,7.4c-0.8,6.6,0.3,7.5,2.8,2.3c0.9-1.9,2.3-3.5,3.1-3.5
		s8,6.3,16.1,14.1c8.1,7.7,14.9,13.8,15.2,13.5c0.3-0.3-2.8-5-6.8-10.5c-6.1-8.3-12.9-21.1-12.9-24.4c0-0.4,0.9-0.7,2-0.7
		c3,0,2.4-2.7-1-4.5c-1.6-0.9-3-2-3-2.6c0-1.9,6-12.3,9-15.6c6.5-7.2,14.4-11.3,19-9.8c1.7,0.5,2,1.5,2,6.1c0,6.1,1.1,6.8,3.7,2.4
		c0.9-1.6,2-3,2.3-3c0.3,0,4.1,3.6,8.5,7.9c10.7,10.9,12.4,9.7,3.9-2.7c-4.1-5.9-4.2-6.2-1.9-5.6c3.8,0.9,3.1-1.2-2-6.7
		c-5-5.4-5.7-8.7-2.8-14.2c1.6-3.1,14-16.7,15.3-16.7c1,0,9.9,15.3,10.9,18.7c1.3,4.5,0.4,7-3.6,9.4c-3.8,2.4-3.9,4.4-0.2,4.4
		c2.8,0,2.8,1.1-0.2,14.7c-2,9.4-2.4,14.2-1.1,13.4c0.5-0.3,3-4.1,5.6-8.6c4.1-7.1,4.9-8,7-7.4c2,0.5,2.5,0,3.4-2.6
		c1.1-3,1.3-3.1,3.3-1.6c2.8,1.9,8.5,10,9.3,13.1c0.4,1.6-0.2,4.4-1.5,7.5c-1.2,2.8-1.9,5.4-1.5,5.7c0.3,0.4,2-0.3,3.6-1.5
		c3.7-2.8,3.7-2.9,8.5,15.3c3.7,13.8,6.2,20.6,6.6,17.5c0.1-0.8,0.3-6.9,0.3-13.4c0.1-7.8,0.5-12,1.2-12.3c0.6-0.2,1.4,0.5,1.7,1.7
		c0.3,1.1,1.1,2,1.7,2c0.9,0,1.1-1.6,0.8-5.5l-0.5-5.4l6.1,0.5c17.4,1.5,24.2,3.9,27.1,9.3c1.2,2.5,1.2,3.1-0.2,5
		c-1.6,2.4-1.1,3.6,1.5,3.6c2.1,0,3,3.4,3.1,11.7c0.1,6.9,1.6,9.1,2.7,4c2.6-11.7,4.1-16.2,5.5-16.2c0.4,0,0.9,1,1.1,2.2
		c0.6,4.3,2.3,2.3,2.8-3.2c0.4-4.5,0.9-5.5,2.5-5.8c1.1-0.2,4.8-1.7,8.3-3.4c4.8-2.4,7.6-3.1,12.5-3.2l6.2-0.1v3
		c0,2.5,0.4,3,2.2,2.7c1.2-0.2,2.4,0.2,2.8,0.8c0.3,0.5,1.5,1,2.5,1c2.5,0,4.7,4.4,9.5,19c2,6.3,4.3,12.1,5,12.9
		c2.8,2.8,2.7-3.5,0-17.9c-2.3-11.8-2.5-14.5-1.5-16.5c1-1.9,1-3.1-0.3-6.8c-2.2-6.5-1.2-9.4,5.6-16l6-5.8l3.8,3.7
		c2.1,2.1,4.1,3.6,4.3,3.3c0.3-0.3,0-2.1-0.6-4.1c-0.9-3.1-0.8-4.1,0.8-6.5l1.8-2.8l1,4.3c0.9,4.4,2.9,5.2,3.4,1.4
		c0.2-1.2,0.9-2.2,1.6-2.2c0.6,0,5.8,2.7,11.3,6.1c11.5,6.8,15.9,7.7,10.2,1.9c-1.9-1.9-6.7-6.4-10.7-9.9l-7.3-6.3l2-2.2
		c2.9-3,2.6-4.3-0.9-5.1c-1.7-0.4-3.5-1.5-4-2.5c-1.7-3.2-1.1-17.9,1-26.9c2.5-10.5,3.2-11.8,4.9-9.7c2.3,2.7,4.4,2,3.7-1.2
		c-0.4-1.5-0.8-3.4-0.9-4.2c-0.1-1,2.5-2.4,8.3-4.5c6.4-2.3,8.8-3.6,9.9-5.7c2.4-4.2,0.7-4.9-8.1-3.1c-4.2,0.9-8.3,1.3-9.2,1
		c-0.8-0.3-1.7-2-2.1-3.7c-0.5-2.4-1.2-3.1-2.8-2.9c-6.1,0.7-8.7-3-13.2-18.8c-2.5-8.6-2.5-9.3-1-12c0.8-1.5,2.6-4.7,4-7.1
		c1.3-2.3,3.7-5.9,5.3-8c7.6-9.7,5.8-10.9-3.7-2.6l-6.4,5.6l-2.2-2.8c-2.4-3.1-3.8-2.2-3.5,2.4c0.3,4.4,0.1,5.2-1.5,5.2
		c-4.5,0-17.5-10.3-22.3-17.6c-4-6-4.1-9.6-0.3-13.5c1-1,1-6.7,2.1-7.2l3.4-10.2 M534.1,725c0.7,0.3,1.5,1.3,1.6,2.2
		c0.3,1.2-0.1,1.7-1,1.4c-0.7-0.3-1.5-1.3-1.6-2.2C532.8,725.2,533.2,724.7,534.1,725z M604.2,707.5c-0.7,0.2-2.1,0.2-3,0
		c-1-0.3-0.4-0.5,1.2-0.5C604.1,707,604.8,707.2,604.2,707.5z M614.9,703.3c-1.5,0.9-4.3-0.3-3.5-1.5c0.8-1.3,4.5-1.3,4.5-0.1
		C615.9,702.3,615.4,703,614.9,703.3z M653.4,685.8c-0.3,0.5-2.1,1-3.8,0.9c-2.7,0-2.9-0.2-1.2-0.9
		C651.2,684.6,654.1,684.6,653.4,685.8z M593,635.8c0.4,0,1.3,0.9,1.9,1.9c1.3,2.6,1.3,4.4-0.2,3.9
		C593.3,641.1,591.7,635.8,593,635.8z M283,223.8c1.1,0.7,1.8,1.4,1.5,1.7c-0.8,0.8-3.6-0.5-3.6-1.7
		C280.9,223.1,281.5,223.1,283,223.8z M250.7,190.4c3.1,0.9,2.7,3.1-1,5.4c-5,3-6.8,2.7-6.8-1.4C242.9,190.1,245.2,189,250.7,190.4z
		 M294.9,184.8c-1.1,0-2-0.5-2-1c0-0.6,0.9-1,2-1c1.1,0,2,0.4,2,1C296.9,184.3,296,184.8,294.9,184.8z M334.7,599.4
		c-0.5,0.4-2.1-0.6-3.3-2.2c-2.9-3.7-4.1-2.6-2.4,2.1c1.1,3.1,1.1,3.7-0.1,4.5c-2.4,1.5-20.3,1.2-22.4-0.3c-1.7-1.3-1.7-1.5-0.2-4.5
		c0.9-1.7,4.5-5.2,8-7.7s6.6-5.2,6.9-5.9c0.5-1.3,2.7-2.1,6.8-2.5c0.8,0,4,0.6,7,1.5c3,0.9,5.8,2,6.3,2.4
		C342.2,587.7,336.7,598.2,334.7,599.4z M338.7,581.3c-4.2-1-7.8-2.3-7.8-3c0-0.8,3.2-0.6,7.3,0.6
		C342.8,580.1,343.3,582.3,338.7,581.3z M380.9,620.3c-0.7,0.8-1.6,1.2-2.1,0.9c-1.3-0.8-0.1-2.4,1.8-2.4
		C381.9,618.8,381.9,619.1,380.9,620.3z M424.9,865.3c0.7,0.9,1,1.8,0.7,2.1c-1.1,1.1-5.7-0.6-5.7-2.1
		C419.9,863.3,423.3,863.4,424.9,865.3z M434.9,827.3c-3.6-1.1-8.1-4.5-7.4-5.6c0.6-1.1,5.7,1.7,8.2,4.5
		C437.3,828,437.3,828,434.9,827.3z M286.5,910.4c0.6-1.7,2.4-2.2,2.4-0.7c0,0.5-0.7,1.4-1.5,2.1
		C285.8,913.2,285.6,912.8,286.5,910.4z M286.3,917.2c1.5-1.9,1.5-1.9,2.9,0c1.7,2.3,3.7,1.3,3.7-1.8c0-1.2,0.5-2.7,1.2-3.4
		c1.4-1.4,19.8-1.7,19.8-0.3c0,0.5,1.8,1.1,3.9,1.5c4.6,0.7,17,10,19.2,14.4c0.7,1.5,2.8,4.4,4.7,6.5c1.8,2.1,3,4.2,2.7,4.7
		c-1.3,2,0.7,4.8,4.5,6.5c4.1,1.8,5.2,3.5,2.5,3.5c-4.6,0-19.5-10.1-31.3-21.3c-4-3.8-7.6-6.7-7.9-6.4c-0.7,0.8,3.2,8.7,6.8,13.6
		c1.7,2.4,3.7,4.1,4.9,4.1c3.6,0,2.1,1.7-3.9,4.4c-6.9,3.1-13.2,3.3-20.6,0.8c-4.8-1.6-5-1.8-5.5-6.1c-0.5-4.2-3-7.2-3-3.6
		c0,3-2.5,0.9-4.2-3.6C284.6,925.2,284.5,919.8,286.3,917.2z M174.4,281.8c-0.3,0.5-1.2,1-2,1s-1.7-0.5-2-1c-0.4-0.6,0.5-1,2-1
		S174.8,281.2,174.4,281.8z M186.5,371.2c-2.5,8.9-4.6,13-4.6,9c0-2.3,2.4-10.8,4.8-17.4C189.4,355.6,189.3,361.1,186.5,371.2z
		 M193.8,415.8c-0.4-1.9-0.6-4.5-0.3-5.8c0.2-1.2,0.6-3.3,0.9-4.7c0.3-1.4,1.2-2.5,2.1-2.5c1.4,0,1.5,0.7,1,4.2
		c-0.4,2.4-1.2,6.1-1.8,8.3l-1.1,4L193.8,415.8z M214.1,546c-0.3-1,0.4-1.3,2.2-1c1.5,0.2,2.6,0.7,2.6,1.3
		C218.9,547.8,214.6,547.5,214.1,546z M218,538.4c-1.4-0.9-1.4-9.1-0.1-11.7c1.4-2.4,2.7-2.4,4,0.1
		C223.7,530.1,220.4,539.8,218,538.4z M214.3,955.8c-0.5,0.5-2.5,1.1-4.5,1.5c-4.5,0.8-5.7-0.6-6.8-7.6c-0.5-2.9-1.6-5.8-2.5-6.4
		c-1.6-1.3-2.1-3.6-0.9-4.8s2.2-0.7,3.4,1.5c0.6,1.3,3.7,5.1,6.7,8.6C212.8,952.2,214.8,955.3,214.3,955.8z M282.6,906.8
		c1.1,0,1.1,0.5,0.3,2c-1.2,2.3-3,2.7-3,0.7C279.9,907.8,280.9,906.8,282.6,906.8z M253.3,860.9c1.2-1.6,8.4-5,10.4-5.1
		c0.9,0,1,1.1,0.6,4.2c-1.1,6.9-2.1,8.7-6.1,10.3c-2,0.9-4.5,2.3-5.5,3.2c-1,0.9-2,1.4-2.2,1.2C249.8,874,252.1,862.3,253.3,860.9z
		 M246.9,862.3c0.6,0.3,1,1.2,1,2s-0.4,1.7-1,2c-0.6,0.4-1-0.5-1-2S246.3,861.9,246.9,862.3z M206.8,725.1c3.1-3.9,3.7-3.6,2.2,1
		c-1.4,4-4.6,7.4-5.6,5.8C202.7,730.7,203.2,729.7,206.8,725.1z M202.1,784.3c-1.7-3.6-1.5-4.3,1.3-7.7c1.4-1.6,2.5-3.5,2.5-4.2
		c0-0.7,1-2.2,2.1-3.5c3.4-3.6,4.3-1.3,2.4,6C207.4,786.3,204.5,789.6,202.1,784.3z M223.4,878.5c-5.8-6.7-16.5-30.3-16.5-36.3
		c0-1.3,0.8-2.8,1.8-3.3c2.4-1.4,2.9-1.3,4.4,0.6c0.7,0.9,3.3,3.6,5.8,6c3.4,3.5,4.5,5.2,4.6,8.1c0.1,2,1.8,7.9,3.8,13
		c4.2,10.9,4.4,12.7,1.4,14.3C226.7,882,226.1,881.7,223.4,878.5z M218.8,904.3c2-1.3,7.1-5.5,11.4-9.4c4.3-3.9,8.2-7.1,8.7-7.1
		c0.6,0,1,1,1,2.3c0,3.2,1,4,2.7,1.9c1.2-1.6,1.4-1.6,2.7,0c1.6,2.2,2.6,2.3,2.6,0.4c0-5.1,14.4-7,23.8-3c4.5,1.8,7.2,4.2,8.3,7.3
		c1.2,2.9-0.4,5.1-3.7,5.1c-3.4,0-3.7,1.4-2.3,10c1.2,7.4,1.1,8-1.1,12.1c-5.4,10.4-4.4,12.2,2.9,5.4c3-2.8,5.2-4.2,5.6-3.5
		c0.4,0.6,0.9,5.2,1.2,10.3c0.7,11.6,0.1,12.2-10.1,12.1c-5.3-0.1-9.2-0.9-15.5-3.2c-4.6-1.8-9.2-3.9-10.2-4.8c-1-0.9-2-3.8-2.4-7.3
		c-1.1-10-3.3-10.9-4.4-1.9l-0.6,5.3l-1.3-5.2c-0.7-2.8-2.3-5.9-3.4-7c-2-1.8-2-1.8-1.3,2.4c0.9,5.6-0.2,5.6-9.1-0.3
		c-7.4-5-12-8.9-13.5-11.6C209.7,912.6,213.4,907.8,218.8,904.3z M165,839.8c-1.9-7-1.9-7.4-0.2-5.3c1,1.2,3.6,6.6,5.7,12
		c4.3,11,25.1,53.5,31.3,64.2c2.6,4.4,7.7,10.5,14.6,17.2c8.9,8.7,10.3,10.5,9,11.5c-2.5,1.8-1.7,4.1,1.8,5.4l3.2,1.1l-3,2.5
		c-1.6,1.3-3.3,2.4-3.6,2.4c-0.9,0-9.4-13.2-18.4-28.5C193.5,901.9,167.3,848.4,165,839.8z M181.5,955.9c3.9-2.3,4.3-4.4,1.9-11.1
		c-0.8-2.3-1.5-4.5-1.5-4.9c0.1-1.4,6.5,6.9,10.6,13.9l4.4,7.5l-6.7,0.3c-3.7,0.2-7.7,0.1-8.9-0.2
		C177.6,960.4,177.7,958.1,181.5,955.9z M148.1,851.3c-2.1,4.6-4,2.9-9.2-8c-6.4-13.5-6.9-15.7-3.9-17.9c3.5-2.4,4.7-2,6.4,2.1
		c0.9,2.1,3,7.8,4.7,12.6C148.6,847.4,149,849.3,148.1,851.3z M139.1,876.8c-4.8-6.5-13-20.5-12.2-20.8c0.6-0.2-0.1-1.8-1.4-3.5
		c-3.8-5-11.3-20.6-12.9-26.8c-0.8-3.1-2.9-7.7-4.6-10.3c-1.7-2.5-4.7-8.1-6.5-12.4c-4.6-10.8-10.8-30.2-10.2-31.8
		c0.7-1.7,4-1.8,5.4-0.2c1.5,1.9,4.3,13.4,3.6,15.1c-0.3,0.9,1.2,4.4,3.3,7.9c5,8.4,26.8,56.9,28.7,63.9c0.8,3,3.3,8.7,5.6,12.7
		C142,877.5,142.8,881.8,139.1,876.8z M157.4,879.8c-0.8-0.7-1.5-1.9-1.5-2.7c0-1.3,0.3-1.3,1.5-0.3c0.8,0.7,1.5,1.9,1.5,2.7
		C158.9,880.8,158.6,880.8,157.4,879.8z M128.8,1064.6c-1.3,1.6-3.3,3.5-4.4,4.2c-1.9,1.2-1.9,1.2-0.6-0.6c2.9-3.8,6.5-7.4,6.9-6.9
		C130.9,1061.5,130.1,1063,128.8,1064.6z M378.6,1178.1c-2.7,2.7-3.8,2.5-19.7-1.9c-16-4.5-21.5-5.3-22.4-2.9
		c-0.9,2.4,3.8,6.4,13.4,11.5c9.1,4.7,10,6.2,1.9,2.9c-7.1-2.7-47-12.4-57.9-14c-4.7-0.7-8.8-1.5-9.3-1.9
		c-0.6-0.5,5.7-21.7,6.9-22.9c0.2-0.2,1.2,0.3,2.2,1.2c2,1.9,8.2,2.3,8.2,0.7c0-0.6-0.9-2.9-2-5.1c-1.2-2.2-1.8-4.8-1.5-5.7
		c0.7-2.2,7.7-7.2,10.2-7.3c1,0,3.8-0.9,6.3-1.9c2.5-1.1,5.6-1.8,7-1.5c1.4,0.2,4.9,0.9,7.9,1.4c2.9,0.6,5.6,1.3,5.9,1.6
		c0.3,0.3,0,2.6-0.6,5.3c-1,4.2-0.9,4.9,0.8,6.2c1.3,1,2.6,4.7,4,11c1.1,5.2,2.5,10.9,3.1,12.6l1,3.2l14.7-0.6l14.8-0.5l3.7,3.2
		l3.6,3.2L378.6,1178.1z M392.3,1186.3c3.2,1.3,4.9,3.5,2.9,3.5c-1.1,0-7.3-3.9-7.3-4.5C387.9,1184.6,388.3,1184.6,392.3,1186.3z
		 M383,1124.8c-7.4-3.7-10.5-3.7-10.9,0.1c-0.2,2,0.9,4,4.9,8.3c2.8,3.1,5,5.8,4.8,6s-4.1-0.6-8.7-1.7c-6.2-1.7-8.6-1.9-10-1.1
		c-2.6,1.7-2.7,6.2-0.2,8.9l2.1,2.3l-4.3,2.4c-3.1,1.7-4.6,3.3-5.4,5.8c-1.3,3.9-4.3,5.1-6.4,2.5c-1.9-2.3-5.1-22.7-3.8-24
		c0.6-0.7,2.1,0.3,4.4,2.9l3.4,3.9v-2.7c0-1.5-0.7-4.1-1.6-5.9c-1.6-3-1.6-3.2,0.7-4.7c1.2-0.8,4.1-3,6.3-4.9
		c5.5-4.6,10.7-7.8,16.4-10.1c5-2,11.2-2.6,11.2-1c0,0.5-0.9,1.4-2,2c-2.9,1.5-2.5,3.6,1.7,9.2l3.6,5L383,1124.8z M392.4,1118.8
		c-0.8-0.7-1.5-2.1-1.5-3.2c0-1.7,0.3-1.8,1.5-0.8c0.8,0.7,1.5,2.1,1.5,3.2C393.9,1119.7,393.6,1119.8,392.4,1118.8z M405.7,1125.8
		c-0.2,0-1.5-1.1-2.8-2.5s-2.1-2.5-1.8-2.5c0.2,0,1.5,1.1,2.8,2.5S406,1125.8,405.7,1125.8z M415.7,1170.8c-0.9,0-2.6-0.9-3.9-2
		l-2.4-2.1l3.5,1.7c1.9,0.9,3.7,1.8,3.9,2C417,1170.6,416.5,1170.8,415.7,1170.8z M450.2,1138c3.2,1.7,3.8,2.3,2.3,2.6
		c-2.1,0.4-9.6-2.6-9.6-4S445.8,1135.7,450.2,1138z M438.8,1120.8c2.7-2.3,2.6-2.3,5.3-0.9c2.7,1.5,0.7,2.9-4.2,2.9l-3.5-0.1
		L438.8,1120.8z M436.3,1135.8c3.7,1.4,3.2,3-0.9,3c-3.7,0-8.5-1.8-8.5-3.2C426.9,1134.5,433.2,1134.6,436.3,1135.8z M402.7,994.8
		c-0.8,0-13.2-12.9-13.7-14.2c-0.7-2.1,2.8,0.7,7,5.7C402.9,994.3,403.2,994.8,402.7,994.8z M410.7,1002.8c-0.3,0-1.3-0.9-2.3-2
		s-1.6-2-1.3-2s1.3,0.9,2.3,2S411,1002.8,410.7,1002.8z M427.8,1019.8c-0.3,0-2.7-2.3-5.4-5c-2.7-2.8-4.7-5-4.4-5
		c0.3,0,2.7,2.2,5.4,5C426.1,1017.5,428.1,1019.8,427.8,1019.8z M487.5,1103.5c-1.2,1.3-6.6-5.5-6.6-8.3c0-4.2,3.2-2.5,5.4,2.8
		C487.4,1100.6,487.9,1103.1,487.5,1103.5z M489.5,1121c-1.6-5.7-1.4-8.2,0.7-11c1.7-2.2,2.7,0.6,2.7,7.8
		C492.9,1127,491.6,1128.3,489.5,1121z M490.6,1059.1c-1.1-1.1-0.8-5.8,0.5-7.1c1.5-1.5,2.8,0.2,2.8,3.4
		C493.9,1057.7,491.6,1060.2,490.6,1059.1z M577.5,1095.7c0.6-1.1,1.1-1.1,4.2-0.3c2.7,0.8,2.9,2.4,0.3,2.4
		C579.2,1097.8,576.8,1096.7,577.5,1095.7z M563.9,1092.9c1.4-5.2,3.4-4.9,3.8,0.5c0.1,2.1-0.2,4.6-0.8,5.4
		c-0.8,1.3-1.1,1.3-2.5-0.1C563,1097.3,562.9,1096.4,563.9,1092.9z M547.2,1129.7c1.2-2,1.2-2,1.5,0.2c0.2,1.2-0.3,2.9-1.2,3.7
		c-1.5,1.5-1.6,1.5-1.6-0.1C545.9,1132.6,546.5,1130.9,547.2,1129.7z M538.2,1083.7c0.7,0.7,1.2,12.7,1.5,35
		c0.3,18.7,0.2,34.7-0.2,35.7c-1.9,5.1-2.8-2.1-3.3-28.2C535.6,1096.8,536.3,1081.8,538.2,1083.7z M527.6,1083c0.2,1,0.2,2.6,0,3.5
		c-0.3,1-0.5,0.2-0.5-1.7S527.3,1082.1,527.6,1083z M523.6,1022c-0.3,0.7-0.5,0.2-0.5-1.2s0.2-1.9,0.5-1.3
		C523.8,1020.2,523.8,1021.4,523.6,1022z M529.4,1017.5c-0.6,1.4-1,0.9-1.6-2.2c-0.4-2.2-0.8-5.1-0.8-6.5c-0.1-3.6,1.8-1.1,2.6,3.3
		C529.9,1014.1,529.8,1016.5,529.4,1017.5z M537,968.6c-0.6,0.9-1.1,1.5-1.1,1.2s-0.7-2.6-1.5-5.3c-1.7-5.6-0.1-6.5,2.1-1.2
		C537.5,965.8,537.7,967.4,537,968.6z M537.1,945c-0.9,0.9-1.2,0.7-1.2-1.2s0.3-2.1,1.2-1.2C538,943.5,538,944.1,537.1,945z
		 M542.6,979c-0.3,0.7-0.5,0.2-0.5-1.2s0.2-1.9,0.5-1.3C542.8,977.2,542.8,978.4,542.6,979z M544.6,990c-0.3,0.7-0.5,0.2-0.5-1.2
		s0.2-1.9,0.5-1.3C544.8,988.2,544.8,989.4,544.6,990z M548,1008.9c-0.5-0.8-0.7-2-0.4-2.8c0.8-2.1,1.3-1.5,1.3,1.4
		C548.9,1009.6,548.6,1009.9,548,1008.9z M568.3,1006.5c-2,0.7-3.3-1.2-2.7-3.8c0.7-2.6,1.8-2.4,3.1,0.6
		C569.7,1005.4,569.6,1006,568.3,1006.5z M651.6,1218.5c-4.1,2.8-4.5,3.5-4.9,8.3c-0.3,2.8-1.2,5.9-2.1,6.7c-1.4,1.4-2,1.4-5.9,0.1
		c-18.9-6.6-23.7-8-29.6-8.7c-4.1-0.5-9.1-0.4-13,0.3c-5.2,0.8-7.8,0.7-14.8-0.7c-8.7-1.8-18.6-5.6-19.8-7.6c-1-1.6,3.7-5.9,9-8.1
		c5.7-2.5,17-5.3,29.4-7.4c5.2-0.9,11.1-2,13-2.5c4.3-1.1,7.2-0.7,18,2.7c10.5,3.3,24.4,10.2,24.8,12.2
		C655.8,1214.7,654.1,1216.7,651.6,1218.5z M676.5,1226.5c-0.8,0.8-4.9-3.1-8.1-7.8c-4.3-6.1-1.2-11.1,3.4-5.3
		C674.1,1216.3,677.4,1225.6,676.5,1226.5z M687.1,1222.8c-2,0-11.8-18.1-10.5-19.4c1.2-1.2,2.2-0.6,4.2,2.7
		C683.4,1210.3,688.1,1222.8,687.1,1222.8z M785.4,1069.3c0.8-7.2,1.5-13.4,1.5-13.9s0.2-0.7,0.5-0.4c0.3,0.3-0.2,12.3-1,26.8
		c-2.1,35-4.2,62-4.7,62.6C780.6,1145.4,783.6,1085,785.4,1069.3z M771.9,1147.8c0.6,0,1,0.7,1,1.5c0,0.8-0.4,1.5-1,1.5
		c-0.5,0-1-0.7-1-1.5C770.9,1148.5,771.4,1147.8,771.9,1147.8z M768.6,1077.5c0.2,1.3,0.2,3.3,0,4.5c-0.2,1.3-0.4,0.3-0.4-2.2
		S768.4,1076.3,768.6,1077.5z M766.6,1096c0.2,1.5,0.2,4.2,0,6c-0.2,1.8-0.4,0.6-0.4-2.7C766.2,1096,766.4,1094.5,766.6,1096z
		 M764.6,1125c0.2,1,0.2,2.6,0,3.5c-0.3,1-0.5,0.2-0.5-1.7S764.3,1124.1,764.6,1125z M763.5,1136.7c1.1-1.9,1.2-0.4,0.4,8
		c-0.5,4.6-1.2,8.6-1.6,9C761.5,1154.4,762.6,1138.1,763.5,1136.7z M746.9,1167.8c2.5-4.6,4.1-17.7,6.5-51.5
		c0.8-11.5,1.8-21.8,2.1-22.7c1.3-4.4,1.7-0.8,1.1,13.1c-0.3,8.1-1.5,24.3-2.8,35.8c-1.2,11.6-1.9,21.8-1.6,22.7
		c1.1,2.9,5.5,1.9,7.4-1.7l1.8-3.2l0.3,2.9c0.2,1.5,0.1,3.9-0.2,5.2c-0.6,2.3-1.1,2.4-8.1,2.4c-4.1,0-7.5-0.3-7.5-0.6
		S746.4,1168.8,746.9,1167.8z M742.5,1128.6c1.5-2.4,2.2,0,1.8,5.9c-0.5,8.2-1.2,10.5-2.6,9.7
		C740.7,1143.6,741.4,1130.4,742.5,1128.6z M738.7,1159c0.9,9.4,0.8,11.3-0.8,11.3c-1.4,0-2-2.2-3.3-10.7c-0.4-2.7-0.1-4.2,1-5.3
		C737.7,1152.2,738.1,1152.8,738.7,1159z M734.6,1114.5c0.2,0.7,0.2,2.1,0,3c-0.3,1-0.5,0.4-0.5-1.2
		C734.1,1114.6,734.3,1113.9,734.6,1114.5z M731.4,1167.9c-0.4,0.5-1.3,0.9-2.2,0.9c-1.3,0-1.3-0.3-0.3-1.5
		C730.2,1165.8,732.4,1166.2,731.4,1167.9z M726.9,1130.8c-3.5-4.6-5.1-14.4-2-12.5c0.5,0.3,1.6,2.9,2.5,5.7
		c0.8,2.9,1.5,6.1,1.5,7.2C728.9,1133.2,728.7,1133.2,726.9,1130.8z M702.6,1205c-0.3,0.7-0.5,0.2-0.5-1.2s0.2-1.9,0.5-1.3
		C702.8,1203.2,702.8,1204.4,702.6,1205z M774,1264.8c-1.5,0-5.4-10.3-5.9-15.5c-0.4-4.8-0.3-4.9,1.2-2.8c0.9,1.2,2.3,3.9,3,6
		C774.1,1257.7,775.1,1264.8,774,1264.8z M788.9,1255.2c-0.6-0.6-1.3-3.1-1.6-5.8l-0.7-4.7l4.9,0.3c3.7,0.2,5,0.7,5.2,2.1
		C797.1,1249.3,790.2,1256.5,788.9,1255.2z M836.9,1127.8c0.4,0,1,3,1.3,6.7c0.9,8.9,0.7,58.5-0.1,64.2c-0.6,3.5-0.9,4.1-1.8,3
		C835,1200.1,835.6,1127.8,836.9,1127.8z M828.6,1001.5c0.2,0.7,0.2,1.9,0,2.5c-0.3,0.7-0.5,0.2-0.5-1.2S828.3,1000.9,828.6,1001.5z
		 M825.3,1190.2c0.5-1.3,1-1.4,1.8-0.6c0.6,0.6,0.8,1.8,0.4,2.8c-0.5,1.3-1,1.4-1.8,0.6C825.1,1192.4,824.9,1191.2,825.3,1190.2z
		 M811.6,1139.5c0.2-41,1.6-83.4,3.4-103.2c1-11.9,1.8-17.9,2.4-17.4c0.1,0.2-0.1,10.7-0.6,23.4c-0.4,12.6-1.1,42.5-1.5,66.2
		l-0.7,43.3l2.7,2.5l2.8,2.6l-0.4,12.9c-0.4,15-1.2,17-5.6,12.7l-2.7-2.8L811.6,1139.5z M828.3,1200.3c30.4,26.1,34.4,28.8,22.5,15
		c-5.9-6.8-6-7.1-5.5-11.5c0.3-2.5,0.9-16.9,1.3-32l0.8-27.5l1.1,31.5c0.7,17.3,1.7,32.7,2.3,34.3c1.3,3.2,3.9,4.6,5.2,2.6
		c0.5-0.8,0.8-14.5,0.7-31.8c-0.2-22,0-30.5,0.8-30.8c2.6-0.9,3.6,6.8,4.5,35.7c0.4,16.2,1.3,31.2,1.8,33.4c1.2,4.9,2.6,6.5,4.4,4.7
		c0.9-0.9,1.2-8.8,1.2-32.6c0-17.2,0.3-31.7,0.8-32.1c2.7-2.7,3.5,6.8,3.6,41.7l0.1,29.6l-22.7-0.1c-24.3-0.1-33.6,1.2-35.8,5
		c-0.5,1-2.2,3.1-3.6,4.8c-2.7,3-2.7,3-7.5,1.8c-2.7-0.7-12.4-1.9-21.7-2.7c-17.3-1.5-19-1.9-21.9-5.4c-1.3-1.6-3-2.1-6.4-2.1
		c-4.9,0-7.6-1-11.4-4.5c-1.4-1.3-3.6-2.6-5-3c-5-1.4-14.8-7.5-18.3-11.4c-2-2.2-4.7-6.2-6.1-8.9c-3.8-7.4-7.2-11-10.8-11.4
		c-5.7-0.6-4.3-2.6,4.7-7c7.9-3.8,9-4,11.8-3c2.9,1.1,3.4,0.9,6.4-2l3.3-3.2l15.7,0.2c14.5,0.2,33.9,1.2,53.6,2.8l7.8,0.7
		L828.3,1200.3z M795.7,1169.5c0.5-0.6,1.3-6.8,1.6-13.7c0.4-6.9,1.1-20.8,1.7-31c1.7-32.8,5.3-80.7,6.4-85.8
		c1.3-5.7,1.6-0.7,1.1,16c-0.4,10.1-1.3,38.5-2.1,63.3c-0.8,24.7-1.8,47.4-2.1,50.3c-0.8,6.4-1.6,6.7-15.3,5.9
		c-10.4-0.7-17.1-2.2-17.1-3.8c0-0.6,0.9-0.8,2-0.4c2.4,0.8,5.7-0.9,6.5-3.4c0.5-1.7,0.8-1.6,3.5,1c2.4,2.4,3.7,2.9,7.8,2.9
		C792.5,1170.8,795.1,1170.2,795.7,1169.5z M922.9,793.9c0,0.5-0.4,0.9-1,0.9c-0.9,0-4-5.2-4-6.7C918,787,922.9,792.7,922.9,793.9z
		 M878.6,814.8c5.9-8.9,7.8-10.5,8.9-7.5c1.4,3.5-5.9,15.5-9.5,15.5C876.3,822.8,876.7,817.6,878.6,814.8z M738.9,724.8
		c0.5,0.8,1,2.3,1,3.3s-0.4,1.5-1,1.2c-0.5-0.3-1-1.8-1-3.3C737.9,723.9,738.1,723.6,738.9,724.8z M602.8,991.3
		c-0.3,0.2-4.7,0.9-9.9,1.6c-5.2,0.6-11.2,1.8-13.3,2.7c-3.2,1.2-4.1,1.2-4.7,0.2c-0.8-1.2-1.5-7.5-2.5-20.5l-0.4-6l1.9,8
		c1.1,4.4,2.4,9.3,2.9,11l0.9,3l0.1-3.6c0.1-2-0.8-8.8-1.9-15c-1.9-10.9-2.5-16.7-1.6-15.8c0.2,0.2,1.8,4,3.6,8.4
		c1.7,4.4,4.2,9.6,5.5,11.5s3.1,5.2,4.1,7.2c2.3,4.9,4.1,5.4,7.5,2.3l2.7-2.7l2.7,3.6C601.9,989.2,603,991,602.8,991.3z M600,961.4
		l0.1-3.1l1.3,3c0.8,1.6,1.4,3.9,1.4,5c0,2,0,2-1.4,0.1C600.6,965.3,599.9,963,600,961.4z M814.3,929.8c-2,0-1.7-2,0.8-4.7
		c2.4-2.6,3.8-2.9,3.8-1C818.9,926.1,815.9,929.8,814.3,929.8z M833.9,955.4c0,1.1-4.4-3.2-11.2-10.9c-4-4.5-5.8-7.2-5.4-8.3
		c0.5-1.4,0.9-1.4,2.4-0.3c0.9,0.8,2.3,2.1,3,2.9C825,941.5,833.9,954.7,833.9,955.4z M894,911.1c-1.3,1.3-1.5-0.1-0.4-3
		c0.7-1.7,0.8-1.7,1.1,0.1C894.9,909.2,894.6,910.5,894,911.1z M1030,946.7c-1.3-3.6-1.4-8.2-0.4-9.3c0.9-0.9,1.8,1.7,2.7,7.6
		C1033.1,950.5,1031.7,951.5,1030,946.7z M1039.1,897.2c-3.3-5.2-4.2-8.9-1.9-8.2c0.6,0.2,2.2,2.5,3.5,5
		C1044.3,901.1,1043.1,903.4,1039.1,897.2z M1061.8,844.5c-4.3,17.7-4.3,17.7-3.7,47.6c0.1,5.2-2.4,9.9-5.7,10.5
		c-2.4,0.5-6.8-4-9.5-9.8c-2.5-5.3-2.2-8,1-8c1.1,0,2-0.5,2-1c0-1.8-5.2-3.1-11.4-2.8c-5,0.2-6.1,0.6-6.4,2.1
		c-0.7,3.6,0.9,6.6,7.3,14.2c3.6,4.2,6.5,8.1,6.5,8.6c0,0.6-1.6,3.1-3.6,5.5c-2,2.4-4.7,7.2-5.9,10.7l-2.3,6.2l-4.8,0.7
		c-2.7,0.3-8.3,0.7-12.5,0.7c-10.9,0.1-16.8,2.2-24.3,8.6l-6.4,5.4l-2.8-3c-4.2-4.4-9.5-7.8-17.4-11c-8.1-3.3-13-3.6-18.5-1.3
		c-7.1,2.9-13.4,0-16.9-7.9c-2.9-6.7-12.4-15.5-21-19.6c-3.5-1.6-6.7-3.5-7.1-4.1c-0.4-0.6,0.7-2.6,2.4-4.6c1.7-1.9,3.1-4,3.1-4.7
		c-0.1-5.4-10.4-18-15.7-19.3c-1.5-0.4-4.1-1.6-5.6-2.7c-2.2-1.5-3.7-1.8-7-1.3c-5.4,0.8-8.8,3.1-12.7,8.4c-2.1,3-4.7,5-8.6,6.7
		c-4.6,2-5.5,2.8-5.2,4.6c0.2,1.6,1.4,2.5,4.2,3.3c4.2,1.2,8.3,5.6,5.2,5.6c-0.8,0-3.6-0.5-6.1-1.2c-4.4-1.2-4.6-1.1-15.9,4.5
		c-16.2,8.1-20.4,12.1-16.1,15.7c2.9,2.4,1.4,2.9-8.2,3.2c-9.2,0.3-9.8,0.4-10.1,2.5c-0.2,1.7,0.7,2.8,3.8,4.8
		c2.3,1.5,4,2.9,3.7,3.1c-0.3,0.3-3.2-0.6-6.4-2l-6-2.5l-9.1,3c-6.2,1.9-11.3,2.9-15.6,2.9c-7.6,0-9.4,1.3-8,6.3
		c0.8,2.8,1.4,3.2,4.7,3.5c2.4,0.2,3.7,0.8,3.4,1.5c-0.8,2.5-6.8,1.8-17.3-2c-0.5-0.2-2.7,1.2-4.7,3.2c-3.1,3-4.2,3.5-8.4,3.5
		c-2.6,0-8.2-0.9-12.3-2c-10-2.6-11.8-2.6-13,0.5c-1,2.7-1.2,2.8-8.3,2.5l-4.8-0.2l0.3,3.4c0.2,2.8,0.7,3.4,3.1,3.6
		c3.9,0.5,3.4,1.5-2.2,4.5c-6.5,3.6-8.8,3.4-12.6-0.7c-4.8-5.3-12-7.1-28.5-7.1h-13.5l-0.3,3.2c-0.4,3.7-2.5,5.3-7.5,5.5
		c-4.6,0.2-5.7-0.7-5.7-4.7c0-3.9-2.7-6.1-6.4-5.1c-1.1,0.3-5.6-0.6-10-2c-7.5-2.5-8-2.6-11.3-1c-1.9,0.9-4.2,3-5.1,4.6
		c-3.1,5.4-5.2,3.7-7.7-5.9c-0.9-3.6-2.3-7.4-3.1-8.5c-0.8-1.2-1.4-4.5-1.4-8.1c0-6.8-1.3-10-3-7.5c-0.5,0.8-1,2.2-1,3.1
		c0,2.7-3,11.9-3.9,11.9c-0.5,0-1.1-4.6-1.5-10.3c-0.4-5.6-0.9-13-1.2-16.4c-0.6-5.8-0.4-6.4,2-8.6c1.4-1.3,2.9-3.9,3.3-5.8
		c0.3-1.9,2.9-7.9,5.7-13.4c6.2-11.9,8.6-21.2,9.2-35.4c0.3-5.8,1-11.7,1.5-13.1s3-3.8,5.6-5.5c6.3-4,14.3-12.2,17.5-18.1
		c3-5.6,6.3-16.7,7.3-24.8c0.4-3.2,1.4-6.1,2.4-7c1-0.9,4.9-2,8.7-2.5c11.9-1.5,20.5-7,28.5-18.5c2.8-3.9,5.6-7.4,6.3-7.8
		c0.6-0.4,3-0.3,5.2,0.2c2.1,0.5,8.5,1.2,14.1,1.6l10.2,0.7l3.2,7.6c4.5,10.9,6.5,16.9,7.3,22.4c1.2,7.9,5.9,10.9,10.4,6.7
		c3.2-3,2.7-5.2-2-10.8c-5.3-6.1-13.7-20.1-14-23.2c-0.3-2,0.6-2.7,5.4-4.6c3.1-1.2,7.1-3.2,8.9-4.5c8-5.7,15-5.9,24.9-0.9
		c12.1,6.1,21.8,7.3,31,3.9c10.6-3.9,12.8-3.5,23.4,5c5.4,4.3,11.2,6.8,24.1,10.2c6.3,1.6,11.5,3.6,12.2,4.5
		c0.7,0.9,1.8,4.2,2.5,7.3c0.6,3.1,3.8,10.7,7,17c3.2,6.2,5.8,12.5,5.8,14c-0.1,1.4-0.9,4.8-1.8,7.6c-1.4,4.2-2.1,5-4.2,5
		c-2.2,0-2.5,0.5-2.8,3.7c-0.2,2-1,4.2-1.8,4.8c-3.6,3.1,0.2,11.5,4.9,10.8c1.7-0.2,2.3-1.2,2.7-3.8c0.6-3.5,0.6-3.5,1.9-1.1
		c1.7,3.1,2.7,1.5,3.6-5.4c2-15.9,3.5-19.6,7.4-17.5c2.5,1.3,3.5,4.9,2.8,9.5c-0.6,3.8,2,9.9,5.8,13.5l2.5,2.3V829
		c0-1.8,0.4-3.2,1-3.2c1.8,0,8.3-6.5,9.6-9.5c0.7-1.6,1.8-6.8,2.4-11.5c1.8-12.2,2-12.6,8.3-14.4c7.7-2.2,13.4-2.1,14.7,0.3
		c1.5,2.9,1.2,4.1-1,4.1c-2.7,0-2.5,2.7,0.3,3.6c1.2,0.4,3.5,1.7,5,3c3.7,3.1,8.2,3.1,10.1,0.1c1.4-2.1,2.1-6.6,1.7-11.3
		c-0.2-3.3-2.9-3.8-4.3-0.9c-0.6,1.4-1.4,2.5-1.8,2.5c-0.7,0-4-6.5-4-8c0-0.5,2-3.2,4.5-6c2.8-3.1,5-6.8,5.7-9.5
		c0.7-2.5,1.8-4.7,2.5-4.9c0.7-0.3,3.8,0.4,7,1.5c3.2,1.1,11.2,2.5,17.8,3.2l12,1.3l4.6,4.6c7.1,7,11.6,9.6,20.3,11.4l7.9,1.6
		l6.7-3.4l6.6-3.4l7,6.4c3.8,3.6,8.9,7.4,11.4,8.4c10.2,4.4,10,4.1,16.4,22c2.4,6.8,5.7,15,7.4,18.1
		C1062.3,840,1062.6,841.2,1061.8,844.5z M723.9,778.3c0-0.8,0.5-1.5,1-1.5c0.6,0,1,0.7,1,1.5s-0.4,1.5-1,1.5
		C724.4,779.8,723.9,779.1,723.9,778.3z M1081.4,842.7c-2.6,2.3-12.5,4.1-12.5,2.3c0-0.7,4.9-1.9,12.5-3.1
		C1082,841.9,1082,842.1,1081.4,842.7z"/>
</g>
</svg>
